<svg width="433" height="133" viewBox="0 0 433 133" fill="none" xmlns="http://www.w3.org/2000/svg">
<path d="M147.032 113H155.16V92.584C156.504 90.6 160.088 89.064 162.776 89.064C163.672 89.064 164.44 89.192 165.016 89.32V81.384C161.176 81.384 157.336 83.56 155.16 86.312V82.088H147.032V113ZM184.431 113.768C194.671 113.768 200.815 106.344 200.815 97.512C200.815 88.744 194.671 81.32 184.431 81.32C174.255 81.32 168.111 88.744 168.111 97.512C168.111 106.344 174.255 113.768 184.431 113.768ZM184.431 106.536C179.375 106.536 176.559 102.376 176.559 97.512C176.559 92.712 179.375 88.552 184.431 88.552C189.487 88.552 192.367 92.712 192.367 97.512C192.367 102.376 189.487 106.536 184.431 106.536ZM204.157 108.968C207.421 111.976 212.605 113.768 217.981 113.768C226.557 113.768 231.357 109.48 231.357 103.848C231.357 96.168 224.253 94.76 218.941 93.736C215.485 93.032 213.053 92.328 213.053 90.408C213.053 88.616 214.973 87.528 217.917 87.528C221.693 87.528 225.213 89.128 227.069 91.112L230.333 85.544C227.261 83.112 223.101 81.32 217.853 81.32C209.725 81.32 205.181 85.864 205.181 91.048C205.181 98.408 212.029 99.688 217.341 100.712C220.861 101.416 223.549 102.184 223.549 104.36C223.549 106.28 221.885 107.496 218.365 107.496C214.525 107.496 209.917 105.384 207.677 103.272L204.157 108.968ZM255.905 113H264.033V93.032C264.033 84.136 257.569 81.32 250.529 81.32C245.665 81.32 240.801 82.856 237.025 86.184L240.097 91.624C242.72 89.192 245.793 87.976 249.121 87.976C253.217 87.976 255.905 90.024 255.905 93.16V97.448C253.857 94.952 250.208 93.672 246.113 93.672C241.185 93.672 235.361 96.296 235.361 103.528C235.361 110.44 241.185 113.768 246.113 113.768C250.145 113.768 253.793 112.296 255.905 109.8V113ZM255.905 105.576C254.561 107.368 252.001 108.264 249.377 108.264C246.177 108.264 243.553 106.6 243.553 103.72C243.553 100.712 246.177 99.048 249.377 99.048C252.001 99.048 254.561 99.944 255.905 101.736V105.576ZM272.095 113H280.223V70.312H272.095V113ZM309.146 113H317.274V82.088H309.146V103.016C307.738 104.808 305.242 106.536 302.106 106.536C298.65 106.536 296.41 105.128 296.41 100.84V82.088H288.282V104.04C288.282 110.056 291.482 113.768 298.266 113.768C303.322 113.768 307.034 111.464 309.146 109.096V113ZM335.713 113.768C339.105 113.768 341.281 112.872 342.497 111.784L340.769 105.64C340.321 106.088 339.169 106.536 337.953 106.536C336.161 106.536 335.137 105.064 335.137 103.144V89.192H341.409V82.088H335.137V73.64H326.945V82.088H321.825V89.192H326.945V105.32C326.945 110.824 330.017 113.768 335.713 113.768ZM351.002 77.544C353.69 77.544 355.866 75.368 355.866 72.68C355.866 69.992 353.69 67.816 351.002 67.816C348.378 67.816 346.138 69.992 346.138 72.68C346.138 75.368 348.378 77.544 351.002 77.544ZM346.97 113H355.098V82.088H346.97V113ZM377.493 113.768C387.733 113.768 393.877 106.344 393.877 97.512C393.877 88.744 387.733 81.32 377.493 81.32C367.317 81.32 361.173 88.744 361.173 97.512C361.173 106.344 367.317 113.768 377.493 113.768ZM377.493 106.536C372.437 106.536 369.621 102.376 369.621 97.512C369.621 92.712 372.437 88.552 377.493 88.552C382.549 88.552 385.429 92.712 385.429 97.512C385.429 102.376 382.549 106.536 377.493 106.536ZM420.771 113H428.899V91.176C428.899 85.16 425.635 81.32 418.851 81.32C413.795 81.32 410.019 83.752 408.035 86.12V82.088H399.907V113H408.035V92.2C409.379 90.344 411.875 88.552 415.075 88.552C418.531 88.552 420.771 90.024 420.771 94.312V113Z" fill="#451C89"/>
<line y1="-1.65179" x2="10.2671" y2="-1.65179" transform="matrix(0.999985 0.00546309 -0.00590239 0.999983 65.1637 66.4486)" stroke="#7E64A9" stroke-width="3.30357"/>
<line y1="-1.65179" x2="10.2671" y2="-1.65179" transform="matrix(0.999985 0.00548521 -0.00585877 0.999983 54.8967 66.3937)" stroke="#D9C2FF" stroke-width="3.30357"/>
<line y1="-1.65179" x2="13.6894" y2="-1.65179" transform="matrix(0.999985 0.00549538 -0.00586894 0.999983 51.5328 56.5046)" stroke="#7E64A9" stroke-width="3.30357"/>
<line y1="-1.65179" x2="13.6894" y2="-1.65179" transform="matrix(0.999985 0.00546309 -0.00590239 0.999983 65.2221 56.5776)" stroke="#D9C2FF" stroke-width="3.30357"/>
<line y1="-1.65179" x2="13.6894" y2="-1.65179" transform="matrix(0.999985 0.00549538 -0.00586894 0.999983 51.5907 46.6322)" stroke="#D9C2FF" stroke-width="3.30357"/>
<path d="M65.2901 45.0615L78.4409 45.1333" stroke="#7E64A9" stroke-width="3.30357"/>
<line y1="-1.65179" x2="10.2671" y2="-1.65179" transform="matrix(0.999985 0.00549538 -0.00586894 0.999983 55.0716 36.7808)" stroke="#7E64A9" stroke-width="3.30357"/>
<line y1="-1.65179" x2="10.2671" y2="-1.65179" transform="matrix(0.999985 0.00546309 -0.00590239 0.999983 65.3384 36.8359)" stroke="#D9C2FF" stroke-width="3.30357"/>
<path d="M74.0319 13.316C66.4574 16.6999 62.7937 19.6099 58.3473 26.2118C53.9009 32.8137 51.571 40.4464 51.628 48.2244C51.685 56.0024 54.1266 63.6067 58.6694 70.155C60.9966 73.5096 63.8264 76.5166 67.058 79.0945C67.1785 79.1906 67.2995 79.2861 67.4211 79.381" stroke="#451C89" stroke-width="3.30357"/>
<path d="M52.6751 13.3976C60.2435 16.7936 66.6146 22.1042 71.049 28.7132C75.4834 35.3223 77.7994 42.9588 77.7283 50.7366C77.6572 58.5145 75.2018 66.1149 70.6471 72.6559C68.8471 75.2409 67.0767 77.5557 65.1708 79.51" stroke="#451C89" stroke-width="3.30357"/>
<line y1="-1.65179" x2="9.95065" y2="-1.65179" transform="matrix(-0.459639 0.888139 -0.902065 -0.431533 76.5221 83.4869)" stroke="#7E64A9" stroke-width="3.30357"/>
<line y1="-1.65179" x2="9.95065" y2="-1.65179" transform="matrix(-0.45961 0.888153 -0.90206 -0.431544 81.094 74.6486)" stroke="#D9C2FF" stroke-width="3.30357"/>
<line y1="-1.65179" x2="13.2675" y2="-1.65179" transform="matrix(-0.459619 0.888149 -0.902055 -0.431553 91.8109 76.1)" stroke="#7E64A9" stroke-width="3.30357"/>
<line y1="-1.65179" x2="13.2675" y2="-1.65179" transform="matrix(-0.459639 0.888139 -0.902065 -0.431533 85.7139 87.8843)" stroke="#D9C2FF" stroke-width="3.30357"/>
<line y1="-1.65179" x2="13.2675" y2="-1.65179" transform="matrix(-0.459619 0.888149 -0.902055 -0.431553 101.004 80.498)" stroke="#D9C2FF" stroke-width="3.30357"/>
<path d="M96.438 93.0145L90.5796 104.334" stroke="#7E64A9" stroke-width="3.30357"/>
<line y1="-1.65179" x2="9.95065" y2="-1.65179" transform="matrix(-0.459619 0.888149 -0.902055 -0.431553 108.67 87.8405)" stroke="#7E64A9" stroke-width="3.30357"/>
<line y1="-1.65179" x2="9.95065" y2="-1.65179" transform="matrix(-0.459639 0.888139 -0.902065 -0.431533 104.098 96.6786)" stroke="#D9C2FF" stroke-width="3.30357"/>
<path d="M122.232 114.542C122.408 106.513 121.304 102.07 117.097 95.3242C112.89 88.5788 106.789 83.2064 99.5003 79.8304C92.2119 76.4544 84.0356 75.2132 75.92 76.2508C71.7625 76.7823 67.7082 77.9007 63.8777 79.555C63.7349 79.6166 63.5924 79.679 63.4503 79.7422" stroke="#451C89" stroke-width="3.30357"/>
<path d="M131.563 96.07C125.058 101.107 117.293 104.268 109.168 105.185C101.044 106.103 92.8925 104.739 85.6606 101.253C78.4287 97.7663 72.4125 92.3 68.3102 85.4881C66.689 82.7961 65.307 80.2486 64.3215 77.7429" stroke="#451C89" stroke-width="3.30357"/>
<line y1="-1.65179" x2="9.93724" y2="-1.65179" transform="matrix(-0.417865 -0.908478 0.920299 -0.391283 56.1125 83.5288)" stroke="#7E64A9" stroke-width="3.30357"/>
<line y1="-1.65179" x2="9.93724" y2="-1.65179" transform="matrix(-0.417897 -0.908465 0.920305 -0.39127 60.2669 92.556)" stroke="#D9C2FF" stroke-width="3.30357"/>
<line y1="-1.65179" x2="13.2497" y2="-1.65179" transform="matrix(-0.417888 -0.908469 0.920309 -0.391261 52.26 99.5581)" stroke="#7E64A9" stroke-width="3.30357"/>
<line y1="-1.65179" x2="13.2497" y2="-1.65179" transform="matrix(-0.417865 -0.908478 0.920299 -0.391283 46.7228 87.5212)" stroke="#D9C2FF" stroke-width="3.30357"/>
<line y1="-1.65179" x2="13.2497" y2="-1.65179" transform="matrix(-0.417888 -0.908469 0.920309 -0.391261 42.8699 103.55)" stroke="#D9C2FF" stroke-width="3.30357"/>
<path d="M35.7678 92.1787L30.449 80.6151" stroke="#7E64A9" stroke-width="3.30357"/>
<line y1="-1.65179" x2="9.93724" y2="-1.65179" transform="matrix(-0.417888 -0.908469 0.920309 -0.391261 32.0975 104.533)" stroke="#7E64A9" stroke-width="3.30357"/>
<line y1="-1.65179" x2="9.93724" y2="-1.65179" transform="matrix(-0.417865 -0.908478 0.920299 -0.391283 27.9433 95.5059)" stroke="#D9C2FF" stroke-width="3.30357"/>
<path d="M2.06482 97.5138C8.37825 102.771 12.6401 104.792 20.7256 105.988C28.811 107.183 37.0077 106.1 44.3644 102.864C51.721 99.6278 57.9362 94.3713 62.2887 87.7045C64.5184 84.2892 66.2124 80.5754 67.3347 76.685C67.3766 76.54 67.4176 76.3947 67.4579 76.2492" stroke="#451C89" stroke-width="3.30357"/>
<path d="M10.8906 116.214C11.0127 108.184 13.442 100.421 17.8965 93.8241C22.351 87.2274 28.6481 82.0677 36.0571 78.9439C43.4662 75.82 51.6834 74.8601 59.7553 76.1753C62.9453 76.6952 65.8668 77.2996 68.5018 78.1707" stroke="#451C89" stroke-width="3.30357"/>
</svg>
