<?xml version="1.0" encoding="iso-8859-1"?>
<!-- Generator: Adobe Illustrator 23.0.0, SVG Export Plug-In . SVG Version: 6.00 Build 0)  -->
<svg version="1.1" baseProfile="tiny" id="Layer_1" xmlns="http://www.w3.org/2000/svg" xmlns:xlink="http://www.w3.org/1999/xlink"
	 x="0px" y="0px" viewBox="0 0 172.8 134.711" xml:space="preserve">
<g>
	<path fill="#19448D" d="M15.925,93.077c0-2.295,0.338-4.449,1.015-6.465c0.677-2.015,1.655-3.766,2.935-5.252
		c1.28-1.485,2.854-2.654,4.722-3.508c1.868-0.853,3.979-1.28,6.333-1.28c1.854,0,3.456,0.243,4.81,0.729s2.493,1.089,3.42,1.81
		s1.685,1.508,2.273,2.36c0.588,0.854,1.036,1.655,1.346,2.405c0.309,0.75,0.521,1.397,0.64,1.941
		c0.117,0.545,0.177,0.847,0.177,0.905h-1.942c-0.206-1.324-0.633-2.508-1.279-3.553c-0.647-1.044-1.456-1.934-2.427-2.67
		c-0.971-0.734-2.053-1.294-3.244-1.677c-1.191-0.382-2.449-0.573-3.772-0.573c-2.06,0-3.898,0.396-5.517,1.191
		c-1.618,0.794-2.986,1.86-4.104,3.199c-1.118,1.339-1.972,2.905-2.56,4.699c-0.589,1.795-0.883,3.707-0.883,5.737
		c0,2.029,0.294,3.942,0.883,5.736c0.588,1.795,1.441,3.361,2.56,4.7c1.117,1.339,2.485,2.404,4.104,3.199
		c1.618,0.794,3.457,1.191,5.517,1.191c1.529,0,2.964-0.316,4.303-0.949c1.338-0.632,2.508-1.471,3.508-2.515
		s1.802-2.251,2.405-3.619c0.603-1.368,0.948-2.787,1.037-4.258h1.941c-0.177,1.883-0.64,3.618-1.39,5.207
		c-0.751,1.588-1.707,2.964-2.869,4.126s-2.508,2.067-4.037,2.714c-1.53,0.646-3.163,0.971-4.898,0.971
		c-2.354,0-4.465-0.427-6.333-1.28c-1.868-0.853-3.441-2.021-4.722-3.508c-1.279-1.485-2.258-3.235-2.935-5.251
		C16.263,97.528,15.925,95.371,15.925,93.077z"/>
	<path fill="#19448D" d="M49.949,77.324v31.508h-1.678V77.324H49.949z"/>
	<path fill="#19448D" d="M55.685,81.868v-4.545h1.677v4.545H55.685z M55.685,108.831V86.149h1.677v22.683H55.685z"/>
	<path fill="#19448D" d="M62.702,86.149h1.677v4.854h0.088c0.294-0.854,0.713-1.61,1.258-2.272c0.544-0.662,1.177-1.229,1.897-1.699
		s1.508-0.823,2.361-1.06c0.853-0.234,1.721-0.353,2.604-0.353c1.323,0,2.449,0.162,3.376,0.485c0.927,0.324,1.684,0.75,2.272,1.279
		c0.588,0.53,1.052,1.126,1.39,1.788c0.338,0.661,0.581,1.331,0.729,2.008c0.146,0.677,0.235,1.331,0.265,1.963
		c0.029,0.634,0.044,1.185,0.044,1.655v14.033h-1.677V94.49c0-0.559-0.044-1.265-0.132-2.118c-0.089-0.854-0.347-1.67-0.772-2.449
		c-0.427-0.779-1.074-1.449-1.942-2.008c-0.867-0.559-2.066-0.839-3.596-0.839c-1.295,0-2.442,0.236-3.442,0.706
		c-1,0.471-1.854,1.125-2.56,1.964s-1.243,1.839-1.61,3.001c-0.368,1.162-0.552,2.435-0.552,3.817v12.268h-1.677V86.149z"/>
	<path fill="#19448D" d="M84.766,93.253c0-2.235,0.331-4.36,0.992-6.376c0.662-2.015,1.626-3.788,2.891-5.317
		s2.816-2.743,4.656-3.641c1.838-0.897,3.949-1.347,6.332-1.347c1.617,0,3.162,0.236,4.634,0.706
		c1.471,0.472,2.787,1.163,3.949,2.074c1.162,0.912,2.141,2.016,2.935,3.31c0.794,1.295,1.324,2.766,1.589,4.413h-1.854
		c-0.735-2.765-2.06-4.927-3.972-6.486c-1.913-1.56-4.324-2.339-7.237-2.339c-2.118,0-3.986,0.412-5.604,1.235
		c-1.618,0.824-2.972,1.927-4.06,3.31c-1.089,1.383-1.913,2.979-2.471,4.788c-0.56,1.81-0.839,3.7-0.839,5.67
		c0,2.001,0.271,3.892,0.816,5.671c0.544,1.78,1.353,3.332,2.427,4.655c1.074,1.324,2.42,2.376,4.038,3.155
		c1.617,0.78,3.515,1.17,5.692,1.17c1.883,0,3.574-0.31,5.075-0.927c1.5-0.618,2.772-1.485,3.817-2.604
		c1.043-1.118,1.831-2.464,2.36-4.038c0.529-1.573,0.75-3.332,0.662-5.273H99.99v-1.677h13.283v15.445h-1.677v-6.708h-0.088
		c-0.383,1.147-0.957,2.185-1.722,3.111c-0.766,0.927-1.67,1.706-2.714,2.339c-1.045,0.633-2.206,1.125-3.486,1.479
		c-1.279,0.353-2.611,0.529-3.993,0.529c-2.383,0-4.494-0.427-6.333-1.28c-1.839-0.853-3.391-2.015-4.655-3.485
		c-1.266-1.471-2.222-3.199-2.868-5.186C85.09,97.645,84.766,95.52,84.766,93.253z"/>
	<path fill="#19448D" d="M118.922,97.71v0.266c0,1.323,0.177,2.589,0.531,3.795c0.354,1.206,0.877,2.266,1.57,3.177
		c0.693,0.912,1.563,1.633,2.61,2.162c1.047,0.53,2.264,0.795,3.65,0.795c2.271,0,4.071-0.596,5.398-1.787s2.241-2.847,2.743-4.965
		h1.677c-0.5,2.647-1.581,4.678-3.243,6.09s-3.861,2.118-6.598,2.118c-1.677,0-3.141-0.302-4.391-0.904
		c-1.251-0.603-2.295-1.427-3.133-2.472c-0.839-1.044-1.464-2.279-1.876-3.707c-0.412-1.426-0.617-2.963-0.617-4.611
		c0-1.589,0.213-3.111,0.64-4.567c0.426-1.456,1.066-2.735,1.92-3.839c0.853-1.104,1.919-1.985,3.199-2.647
		c1.279-0.662,2.787-0.993,4.523-0.993c1.588,0,2.993,0.294,4.214,0.883s2.243,1.39,3.067,2.404c0.823,1.016,1.448,2.192,1.875,3.53
		c0.426,1.34,0.64,2.773,0.64,4.303c0,0.147-0.008,0.316-0.021,0.508c-0.016,0.191-0.022,0.346-0.022,0.463H118.922z
		 M135.602,96.254c-0.06-1.235-0.266-2.405-0.619-3.508c-0.354-1.104-0.878-2.074-1.571-2.913c-0.693-0.838-1.534-1.507-2.521-2.008
		c-0.989-0.5-2.117-0.75-3.385-0.75c-1.357,0-2.552,0.258-3.584,0.772c-1.033,0.515-1.903,1.191-2.611,2.03
		c-0.708,0.838-1.253,1.816-1.637,2.935c-0.383,1.118-0.62,2.266-0.708,3.441H135.602z"/>
	<path fill="#19448D" d="M141.206,86.149h1.677v4.854h0.089c0.294-0.854,0.713-1.61,1.258-2.272
		c0.544-0.662,1.176-1.229,1.897-1.699c0.721-0.471,1.507-0.823,2.36-1.06c0.854-0.234,1.722-0.353,2.604-0.353
		c1.324,0,2.449,0.162,3.376,0.485c0.927,0.324,1.684,0.75,2.272,1.279c0.589,0.53,1.052,1.126,1.391,1.788
		c0.338,0.661,0.58,1.331,0.728,2.008s0.235,1.331,0.266,1.963c0.028,0.634,0.044,1.185,0.044,1.655v14.033h-1.677V94.49
		c0-0.559-0.045-1.265-0.133-2.118s-0.346-1.67-0.772-2.449s-1.074-1.449-1.941-2.008c-0.868-0.559-2.067-0.839-3.597-0.839
		c-1.295,0-2.442,0.236-3.442,0.706c-1,0.471-1.853,1.125-2.559,1.964s-1.243,1.839-1.611,3.001s-0.552,2.435-0.552,3.817v12.268
		h-1.677V86.149z"/>
</g>
<g>
	<path fill="#19448D" d="M23.931,117.328c-0.172-0.271-0.381-0.498-0.628-0.682c-0.247-0.183-0.52-0.322-0.817-0.419
		c-0.297-0.096-0.609-0.144-0.936-0.144c-0.595,0-1.106,0.112-1.533,0.338c-0.427,0.225-0.777,0.522-1.049,0.894
		c-0.272,0.371-0.474,0.79-0.604,1.256c-0.13,0.467-0.195,0.946-0.195,1.438c0,0.483,0.065,0.961,0.195,1.432
		s0.331,0.892,0.604,1.263c0.272,0.371,0.622,0.669,1.049,0.894s0.938,0.338,1.533,0.338c0.418,0,0.796-0.075,1.131-0.226
		c0.335-0.149,0.624-0.354,0.867-0.612c0.243-0.258,0.44-0.561,0.591-0.906c0.15-0.346,0.247-0.719,0.289-1.119h0.854
		c-0.059,0.551-0.188,1.046-0.39,1.488c-0.201,0.441-0.461,0.816-0.779,1.125c-0.318,0.308-0.693,0.546-1.125,0.712
		c-0.432,0.167-0.911,0.25-1.439,0.25c-0.704,0-1.322-0.127-1.854-0.381c-0.532-0.254-0.974-0.594-1.326-1.019
		c-0.352-0.426-0.616-0.917-0.792-1.476c-0.176-0.558-0.264-1.146-0.264-1.763c0-0.616,0.088-1.204,0.264-1.762
		c0.176-0.559,0.439-1.053,0.792-1.481c0.352-0.43,0.794-0.771,1.326-1.025c0.532-0.254,1.15-0.381,1.854-0.381
		c0.427,0,0.844,0.062,1.25,0.188c0.406,0.125,0.774,0.311,1.105,0.556c0.331,0.246,0.607,0.549,0.83,0.906
		c0.222,0.358,0.362,0.771,0.421,1.238h-0.854C24.227,117.906,24.103,117.599,23.931,117.328z"/>
	<path fill="#19448D" d="M27.242,115.547v8.925h-0.792v-8.925H27.242z"/>
	<path fill="#19448D" d="M29.568,115.547v1.263h-0.792v-1.263H29.568z M29.568,118.022v6.45h-0.792v-6.45H29.568z"/>
	<path fill="#19448D" d="M31.867,118.022v1.112h0.025c0.151-0.392,0.419-0.706,0.805-0.943c0.385-0.237,0.808-0.356,1.269-0.356
		c0.453,0,0.832,0.059,1.137,0.175c0.306,0.117,0.551,0.281,0.735,0.494s0.314,0.473,0.39,0.781s0.113,0.654,0.113,1.037v4.15
		h-0.792v-4.025c0-0.274-0.025-0.531-0.075-0.769s-0.138-0.443-0.264-0.618c-0.125-0.176-0.295-0.312-0.509-0.413
		c-0.214-0.1-0.48-0.149-0.798-0.149c-0.319,0-0.602,0.056-0.849,0.168c-0.247,0.113-0.457,0.268-0.628,0.463
		c-0.172,0.196-0.306,0.43-0.402,0.7c-0.097,0.271-0.149,0.564-0.157,0.881v3.763h-0.792v-6.45H31.867z"/>
	<path fill="#19448D" d="M38.641,115.547v1.263h-0.792v-1.263H38.641z M38.641,118.022v6.45h-0.792v-6.45H38.641z"/>
	<path fill="#19448D" d="M44.132,118.909c-0.293-0.275-0.704-0.412-1.231-0.412c-0.377,0-0.708,0.079-0.993,0.237
		c-0.285,0.158-0.521,0.366-0.71,0.625c-0.188,0.258-0.331,0.552-0.427,0.881c-0.097,0.329-0.145,0.665-0.145,1.007
		s0.048,0.677,0.145,1.006c0.096,0.329,0.239,0.623,0.427,0.881c0.188,0.259,0.425,0.467,0.71,0.625
		c0.285,0.159,0.616,0.238,0.993,0.238c0.243,0,0.473-0.046,0.691-0.138c0.218-0.092,0.41-0.219,0.578-0.382
		c0.167-0.162,0.306-0.355,0.415-0.581c0.109-0.225,0.176-0.471,0.201-0.737h0.792c-0.109,0.783-0.398,1.394-0.867,1.831
		s-1.072,0.656-1.81,0.656c-0.495,0-0.932-0.09-1.313-0.269c-0.381-0.179-0.702-0.423-0.961-0.731
		c-0.26-0.308-0.457-0.669-0.591-1.081c-0.134-0.412-0.201-0.852-0.201-1.318s0.067-0.906,0.201-1.319
		c0.134-0.412,0.331-0.772,0.591-1.081c0.259-0.309,0.58-0.554,0.961-0.737c0.381-0.184,0.819-0.275,1.313-0.275
		c0.695,0,1.284,0.184,1.766,0.55c0.482,0.367,0.769,0.921,0.861,1.663h-0.792C44.627,119.564,44.426,119.185,44.132,118.909z"/>
	<path fill="#19448D" d="M46.847,119.022c0.134-0.274,0.316-0.5,0.546-0.675s0.501-0.304,0.811-0.388
		c0.31-0.083,0.653-0.125,1.03-0.125c0.285,0,0.57,0.027,0.854,0.081c0.285,0.055,0.541,0.156,0.767,0.307s0.411,0.36,0.553,0.631
		c0.142,0.271,0.213,0.623,0.213,1.057v3.425c0,0.317,0.155,0.476,0.465,0.476c0.092,0,0.176-0.017,0.251-0.051v0.663
		c-0.092,0.017-0.174,0.029-0.245,0.037c-0.071,0.009-0.161,0.013-0.27,0.013c-0.201,0-0.362-0.027-0.484-0.081
		c-0.122-0.055-0.216-0.132-0.283-0.231c-0.067-0.1-0.111-0.219-0.132-0.356c-0.021-0.138-0.032-0.289-0.032-0.456h-0.025
		c-0.143,0.208-0.287,0.394-0.434,0.557c-0.146,0.162-0.31,0.298-0.49,0.406s-0.385,0.191-0.616,0.25
		c-0.23,0.058-0.505,0.087-0.823,0.087c-0.301,0-0.584-0.035-0.848-0.106c-0.264-0.07-0.495-0.183-0.691-0.337
		s-0.352-0.351-0.465-0.588s-0.169-0.519-0.169-0.844c0-0.45,0.101-0.802,0.301-1.056c0.201-0.255,0.467-0.448,0.798-0.582
		c0.331-0.133,0.704-0.227,1.118-0.281c0.415-0.054,0.836-0.105,1.263-0.156c0.167-0.017,0.314-0.037,0.44-0.062
		c0.125-0.024,0.23-0.068,0.314-0.131c0.084-0.062,0.149-0.147,0.195-0.256s0.069-0.25,0.069-0.426c0-0.267-0.044-0.485-0.132-0.656
		c-0.088-0.17-0.209-0.306-0.364-0.406c-0.155-0.1-0.335-0.168-0.541-0.206c-0.205-0.037-0.425-0.056-0.66-0.056
		c-0.502,0-0.913,0.118-1.231,0.355c-0.318,0.238-0.486,0.619-0.503,1.145h-0.792C46.633,119.622,46.713,119.297,46.847,119.022z
		 M50.806,120.947c-0.05,0.092-0.146,0.159-0.289,0.2c-0.143,0.042-0.268,0.071-0.377,0.088c-0.335,0.059-0.681,0.11-1.037,0.156
		c-0.356,0.046-0.681,0.114-0.974,0.206s-0.534,0.223-0.723,0.394s-0.283,0.415-0.283,0.731c0,0.2,0.04,0.377,0.12,0.531
		c0.079,0.154,0.186,0.287,0.32,0.4c0.134,0.112,0.289,0.197,0.465,0.256c0.176,0.059,0.356,0.088,0.541,0.088
		c0.302,0,0.591-0.046,0.867-0.138s0.517-0.226,0.723-0.4c0.205-0.175,0.369-0.388,0.49-0.638c0.121-0.25,0.182-0.533,0.182-0.85
		v-1.025H50.806z"/>
	<path fill="#19448D" d="M54.01,115.547v8.925h-0.792v-8.925H54.01z"/>
	<path fill="#19448D" d="M66.226,124.472l-0.113-1.625h-0.025c-0.151,0.316-0.337,0.59-0.559,0.818
		c-0.222,0.229-0.467,0.417-0.735,0.562c-0.268,0.146-0.555,0.252-0.861,0.319c-0.306,0.066-0.622,0.1-0.949,0.1
		c-0.704,0-1.322-0.127-1.854-0.381c-0.532-0.254-0.974-0.594-1.326-1.019c-0.352-0.426-0.616-0.917-0.792-1.476
		c-0.176-0.558-0.264-1.146-0.264-1.763c0-0.616,0.088-1.204,0.264-1.762c0.176-0.559,0.439-1.053,0.792-1.481
		c0.352-0.43,0.794-0.771,1.326-1.025c0.532-0.254,1.15-0.381,1.854-0.381c0.469,0,0.913,0.062,1.332,0.188
		c0.419,0.125,0.792,0.312,1.119,0.562c0.327,0.25,0.603,0.559,0.829,0.925c0.226,0.367,0.381,0.796,0.465,1.287h-0.854
		c-0.025-0.258-0.111-0.519-0.257-0.781c-0.147-0.262-0.344-0.502-0.591-0.719c-0.247-0.216-0.542-0.394-0.886-0.531
		c-0.344-0.137-0.729-0.206-1.156-0.206c-0.595,0-1.106,0.112-1.533,0.338c-0.427,0.225-0.777,0.522-1.049,0.894
		c-0.272,0.371-0.474,0.79-0.604,1.256c-0.13,0.467-0.195,0.946-0.195,1.438c0,0.483,0.065,0.961,0.195,1.432
		s0.331,0.892,0.604,1.263c0.272,0.371,0.622,0.669,1.049,0.894s0.938,0.338,1.533,0.338c0.494,0,0.936-0.082,1.326-0.244
		c0.39-0.162,0.718-0.39,0.986-0.682c0.268-0.291,0.469-0.637,0.604-1.037c0.134-0.4,0.197-0.838,0.188-1.312h-3.054v-0.725h3.808
		v4.537H66.226z"/>
	<path fill="#19448D" d="M68.922,122.341c0.08,0.304,0.208,0.577,0.383,0.818c0.176,0.242,0.398,0.441,0.666,0.6
		c0.268,0.159,0.591,0.238,0.968,0.238c0.578,0,1.03-0.15,1.357-0.45c0.327-0.3,0.553-0.7,0.678-1.2h0.792
		c-0.167,0.733-0.476,1.3-0.924,1.7c-0.448,0.399-1.083,0.6-1.904,0.6c-0.511,0-0.953-0.09-1.326-0.269
		c-0.373-0.179-0.677-0.425-0.911-0.737c-0.235-0.312-0.409-0.675-0.521-1.088c-0.113-0.412-0.17-0.848-0.17-1.306
		c0-0.426,0.057-0.842,0.17-1.25c0.113-0.408,0.287-0.773,0.521-1.094c0.234-0.321,0.538-0.579,0.911-0.775
		c0.373-0.195,0.814-0.294,1.326-0.294c0.52,0,0.963,0.104,1.332,0.312c0.369,0.209,0.668,0.481,0.898,0.819
		c0.23,0.337,0.396,0.725,0.497,1.162s0.143,0.881,0.125,1.331h-4.989C68.802,121.742,68.842,122.036,68.922,122.341z
		 M72.842,119.935c-0.096-0.275-0.232-0.52-0.408-0.731c-0.176-0.213-0.39-0.384-0.641-0.513s-0.536-0.193-0.854-0.193
		c-0.327,0-0.616,0.064-0.867,0.193s-0.465,0.3-0.641,0.513c-0.176,0.212-0.316,0.458-0.421,0.737s-0.174,0.564-0.207,0.856H73
		C72.991,120.497,72.939,120.209,72.842,119.935z"/>
	<path fill="#19448D" d="M75.639,118.022v1.112h0.025c0.151-0.392,0.419-0.706,0.805-0.943c0.385-0.237,0.808-0.356,1.269-0.356
		c0.453,0,0.832,0.059,1.137,0.175c0.306,0.117,0.551,0.281,0.735,0.494s0.314,0.473,0.39,0.781s0.113,0.654,0.113,1.037v4.15
		h-0.792v-4.025c0-0.274-0.025-0.531-0.075-0.769s-0.138-0.443-0.264-0.618c-0.125-0.176-0.295-0.312-0.509-0.413
		c-0.214-0.1-0.48-0.149-0.798-0.149c-0.319,0-0.602,0.056-0.849,0.168c-0.247,0.113-0.457,0.268-0.628,0.463
		c-0.172,0.196-0.306,0.43-0.402,0.7c-0.097,0.271-0.149,0.564-0.157,0.881v3.763h-0.792v-6.45H75.639z"/>
	<path fill="#19448D" d="M85.661,118.11c0.381,0.184,0.702,0.429,0.961,0.737c0.259,0.309,0.457,0.669,0.59,1.081
		c0.134,0.413,0.201,0.853,0.201,1.319s-0.067,0.906-0.201,1.318c-0.134,0.412-0.331,0.773-0.59,1.081
		c-0.26,0.309-0.581,0.553-0.961,0.731c-0.381,0.179-0.819,0.269-1.313,0.269c-0.495,0-0.932-0.09-1.313-0.269
		c-0.381-0.179-0.702-0.423-0.961-0.731c-0.26-0.308-0.457-0.669-0.591-1.081c-0.134-0.412-0.201-0.852-0.201-1.318
		s0.067-0.906,0.201-1.319c0.134-0.412,0.331-0.772,0.591-1.081c0.259-0.309,0.58-0.554,0.961-0.737
		c0.381-0.184,0.819-0.275,1.313-0.275C84.841,117.834,85.279,117.926,85.661,118.11z M83.355,118.735
		c-0.285,0.158-0.521,0.366-0.71,0.625c-0.188,0.258-0.331,0.552-0.427,0.881c-0.097,0.329-0.145,0.665-0.145,1.007
		s0.048,0.677,0.145,1.006c0.096,0.329,0.239,0.623,0.427,0.881c0.188,0.259,0.425,0.467,0.71,0.625
		c0.285,0.159,0.616,0.238,0.993,0.238s0.708-0.079,0.993-0.238c0.285-0.158,0.521-0.366,0.71-0.625
		c0.188-0.258,0.331-0.552,0.427-0.881c0.096-0.329,0.145-0.664,0.145-1.006s-0.048-0.678-0.145-1.007
		c-0.097-0.329-0.239-0.623-0.427-0.881c-0.189-0.259-0.426-0.467-0.71-0.625s-0.616-0.237-0.993-0.237
		S83.639,118.576,83.355,118.735z"/>
	<path fill="#19448D" d="M89.324,118.022v1.088h0.038c0.209-0.4,0.484-0.713,0.823-0.938c0.339-0.226,0.773-0.338,1.301-0.338
		c0.427,0,0.814,0.104,1.163,0.312c0.347,0.209,0.58,0.525,0.697,0.95c0.193-0.425,0.478-0.741,0.854-0.95
		c0.377-0.208,0.779-0.312,1.207-0.312c1.433,0,2.149,0.755,2.149,2.263v4.375h-0.792v-4.338c0-0.533-0.113-0.939-0.339-1.219
		c-0.226-0.278-0.625-0.418-1.194-0.418c-0.344,0-0.628,0.064-0.854,0.193c-0.227,0.129-0.407,0.302-0.541,0.519
		c-0.134,0.217-0.229,0.465-0.283,0.744c-0.055,0.279-0.082,0.568-0.082,0.868v3.65H92.68v-4.375c0-0.217-0.023-0.423-0.069-0.619
		c-0.046-0.195-0.121-0.366-0.226-0.512c-0.105-0.146-0.245-0.261-0.421-0.344c-0.176-0.084-0.39-0.125-0.641-0.125
		c-0.335,0-0.626,0.061-0.873,0.181c-0.248,0.121-0.449,0.288-0.604,0.5c-0.155,0.213-0.27,0.463-0.346,0.75
		c-0.075,0.288-0.113,0.603-0.113,0.944v3.6h-0.792v-6.45H89.324z"/>
	<path fill="#19448D" d="M99.648,122.341c0.08,0.304,0.207,0.577,0.383,0.818c0.176,0.242,0.398,0.441,0.666,0.6
		c0.269,0.159,0.592,0.238,0.969,0.238c0.578,0,1.029-0.15,1.357-0.45c0.326-0.3,0.553-0.7,0.678-1.2h0.792
		c-0.167,0.733-0.476,1.3-0.924,1.7c-0.448,0.399-1.083,0.6-1.903,0.6c-0.512,0-0.953-0.09-1.326-0.269s-0.677-0.425-0.911-0.737
		c-0.235-0.312-0.409-0.675-0.521-1.088c-0.113-0.412-0.17-0.848-0.17-1.306c0-0.426,0.057-0.842,0.17-1.25
		c0.112-0.408,0.286-0.773,0.521-1.094c0.234-0.321,0.538-0.579,0.911-0.775c0.373-0.195,0.814-0.294,1.326-0.294
		c0.52,0,0.963,0.104,1.332,0.312c0.368,0.209,0.668,0.481,0.898,0.819c0.23,0.337,0.396,0.725,0.496,1.162s0.143,0.881,0.125,1.331
		h-4.988C99.529,121.742,99.568,122.036,99.648,122.341z M103.569,119.935c-0.097-0.275-0.232-0.52-0.408-0.731
		c-0.177-0.213-0.39-0.384-0.642-0.513c-0.251-0.129-0.535-0.193-0.854-0.193c-0.327,0-0.616,0.064-0.867,0.193
		c-0.252,0.129-0.465,0.3-0.642,0.513c-0.176,0.212-0.315,0.458-0.421,0.737s-0.174,0.564-0.207,0.856h4.197
		C103.718,120.497,103.666,120.209,103.569,119.935z"/>
	<path fill="#19448D" d="M113.313,115.547c0.366,0,0.715,0.046,1.044,0.138s0.617,0.23,0.862,0.418
		c0.246,0.188,0.442,0.43,0.588,0.726s0.219,0.644,0.219,1.044c0,0.566-0.146,1.058-0.438,1.475s-0.726,0.684-1.3,0.8v0.025
		c0.291,0.042,0.533,0.118,0.725,0.231c0.191,0.112,0.348,0.256,0.469,0.431s0.208,0.377,0.263,0.606
		c0.054,0.229,0.089,0.478,0.106,0.744c0.008,0.149,0.016,0.333,0.024,0.55s0.025,0.436,0.05,0.656
		c0.025,0.221,0.064,0.429,0.119,0.625c0.055,0.195,0.127,0.348,0.219,0.456h-0.938c-0.05-0.083-0.09-0.186-0.119-0.307
		c-0.029-0.12-0.05-0.245-0.062-0.375c-0.012-0.129-0.022-0.256-0.031-0.381c-0.008-0.125-0.017-0.233-0.024-0.325
		c-0.017-0.316-0.044-0.631-0.081-0.943c-0.038-0.312-0.117-0.592-0.238-0.838c-0.121-0.245-0.295-0.443-0.524-0.594
		c-0.229-0.149-0.544-0.217-0.944-0.2h-3.225v3.963h-0.85v-8.925H113.313z M113.251,119.784c0.259,0,0.505-0.039,0.737-0.119
		c0.233-0.079,0.438-0.193,0.613-0.344c0.175-0.149,0.314-0.331,0.418-0.543c0.104-0.213,0.156-0.457,0.156-0.731
		c0-0.55-0.158-0.983-0.475-1.3c-0.316-0.317-0.8-0.476-1.45-0.476h-3.175v3.513H113.251z"/>
	<path fill="#19448D" d="M117.994,122.341c0.08,0.304,0.207,0.577,0.382,0.818c0.175,0.242,0.396,0.441,0.663,0.6
		c0.266,0.159,0.587,0.238,0.962,0.238c0.575,0,1.024-0.15,1.351-0.45c0.324-0.3,0.549-0.7,0.674-1.2h0.788
		c-0.167,0.733-0.474,1.3-0.919,1.7c-0.445,0.399-1.076,0.6-1.894,0.6c-0.509,0-0.948-0.09-1.319-0.269
		c-0.37-0.179-0.672-0.425-0.906-0.737c-0.232-0.312-0.406-0.675-0.518-1.088c-0.113-0.412-0.17-0.848-0.17-1.306
		c0-0.426,0.057-0.842,0.17-1.25c0.111-0.408,0.285-0.773,0.518-1.094c0.234-0.321,0.536-0.579,0.906-0.775
		c0.371-0.195,0.811-0.294,1.319-0.294c0.517,0,0.958,0.104,1.325,0.312c0.367,0.209,0.664,0.481,0.894,0.819
		c0.229,0.337,0.394,0.725,0.493,1.162c0.101,0.438,0.143,0.881,0.125,1.331h-4.962
		C117.876,121.742,117.916,122.036,117.994,122.341z M121.894,119.935c-0.096-0.275-0.23-0.52-0.406-0.731
		c-0.175-0.213-0.387-0.384-0.637-0.513s-0.533-0.193-0.851-0.193c-0.325,0-0.612,0.064-0.862,0.193s-0.463,0.3-0.638,0.513
		c-0.175,0.212-0.314,0.458-0.419,0.737c-0.104,0.279-0.173,0.564-0.206,0.856h4.175
		C122.043,120.497,121.99,120.209,121.894,119.935z"/>
	<path fill="#19448D" d="M127.613,119.279c-0.092-0.18-0.215-0.327-0.369-0.444c-0.154-0.116-0.33-0.202-0.531-0.256
		c-0.199-0.055-0.412-0.081-0.637-0.081c-0.176,0-0.353,0.019-0.531,0.056c-0.18,0.038-0.344,0.101-0.494,0.188
		c-0.15,0.088-0.271,0.202-0.362,0.344c-0.092,0.142-0.138,0.317-0.138,0.525c0,0.175,0.044,0.323,0.131,0.443
		c0.088,0.121,0.198,0.224,0.332,0.307c0.133,0.083,0.279,0.152,0.438,0.206c0.158,0.055,0.304,0.098,0.438,0.131l1.05,0.238
		c0.226,0.033,0.448,0.094,0.669,0.181c0.221,0.088,0.416,0.202,0.588,0.344c0.17,0.142,0.31,0.317,0.418,0.525
		s0.162,0.454,0.162,0.737c0,0.35-0.078,0.648-0.236,0.894c-0.159,0.246-0.361,0.446-0.607,0.601s-0.522,0.264-0.83,0.331
		c-0.309,0.066-0.613,0.1-0.913,0.1c-0.759,0-1.373-0.179-1.844-0.537c-0.472-0.358-0.739-0.934-0.806-1.726h0.787
		c0.033,0.534,0.227,0.936,0.581,1.207c0.354,0.271,0.794,0.406,1.319,0.406c0.191,0,0.389-0.021,0.594-0.062
		c0.203-0.042,0.393-0.113,0.568-0.213c0.175-0.1,0.318-0.227,0.432-0.381c0.111-0.154,0.168-0.344,0.168-0.569
		c0-0.191-0.039-0.352-0.119-0.481c-0.078-0.129-0.186-0.237-0.318-0.324c-0.133-0.088-0.285-0.161-0.456-0.219
		c-0.171-0.059-0.344-0.108-0.519-0.15l-1.013-0.225c-0.259-0.067-0.496-0.145-0.712-0.231c-0.217-0.088-0.406-0.196-0.569-0.325
		s-0.29-0.287-0.382-0.475s-0.137-0.419-0.137-0.694c0-0.325,0.072-0.604,0.219-0.837c0.146-0.233,0.335-0.421,0.568-0.562
		s0.494-0.246,0.781-0.312c0.287-0.067,0.572-0.101,0.856-0.101c0.325,0,0.627,0.042,0.906,0.125
		c0.278,0.084,0.524,0.213,0.737,0.388s0.381,0.392,0.506,0.65c0.125,0.258,0.196,0.562,0.213,0.912h-0.787
		C127.755,119.668,127.705,119.457,127.613,119.279z"/>
	<path fill="#19448D" d="M133.944,118.11c0.379,0.184,0.698,0.429,0.956,0.737s0.454,0.669,0.588,1.081
		c0.133,0.413,0.199,0.853,0.199,1.319s-0.066,0.906-0.199,1.318c-0.134,0.412-0.33,0.773-0.588,1.081
		c-0.258,0.309-0.577,0.553-0.956,0.731c-0.38,0.179-0.814,0.269-1.306,0.269c-0.492,0-0.928-0.09-1.307-0.269
		s-0.698-0.423-0.957-0.731c-0.258-0.308-0.453-0.669-0.587-1.081s-0.2-0.852-0.2-1.318s0.066-0.906,0.2-1.319
		c0.134-0.412,0.329-0.772,0.587-1.081c0.259-0.309,0.578-0.554,0.957-0.737s0.814-0.275,1.307-0.275
		C133.13,117.834,133.564,117.926,133.944,118.11z M131.65,118.735c-0.283,0.158-0.519,0.366-0.706,0.625
		c-0.188,0.258-0.329,0.552-0.425,0.881s-0.145,0.665-0.145,1.007s0.049,0.677,0.145,1.006s0.237,0.623,0.425,0.881
		c0.188,0.259,0.423,0.467,0.706,0.625c0.283,0.159,0.613,0.238,0.988,0.238s0.703-0.079,0.986-0.238
		c0.283-0.158,0.52-0.366,0.707-0.625c0.188-0.258,0.329-0.552,0.425-0.881s0.144-0.664,0.144-1.006s-0.048-0.678-0.144-1.007
		s-0.237-0.623-0.425-0.881c-0.188-0.259-0.424-0.467-0.707-0.625s-0.611-0.237-0.986-0.237S131.933,118.576,131.65,118.735z"/>
	<path fill="#19448D" d="M141.363,124.472v-1.162h-0.025c-0.208,0.433-0.51,0.765-0.906,0.993c-0.396,0.229-0.835,0.344-1.318,0.344
		c-0.408,0-0.756-0.056-1.044-0.169c-0.287-0.112-0.521-0.272-0.7-0.48c-0.179-0.209-0.311-0.463-0.394-0.763
		s-0.125-0.642-0.125-1.025v-4.188h0.788v4.2c0.016,0.583,0.151,1.025,0.406,1.325c0.254,0.3,0.693,0.45,1.318,0.45
		c0.342,0,0.633-0.073,0.875-0.219c0.242-0.146,0.441-0.34,0.6-0.582c0.158-0.241,0.275-0.519,0.351-0.831s0.112-0.631,0.112-0.956
		v-3.388h0.787v6.45H141.363z"/>
	<path fill="#19448D" d="M144.3,118.022v1.513h0.025c0.199-0.525,0.51-0.929,0.931-1.213c0.421-0.283,0.923-0.412,1.507-0.387v0.787
		c-0.359-0.017-0.684,0.031-0.976,0.144s-0.544,0.273-0.757,0.481c-0.212,0.208-0.377,0.456-0.493,0.744
		c-0.116,0.287-0.175,0.602-0.175,0.943v3.438h-0.787v-6.45H144.3z"/>
	<path fill="#19448D" d="M151.238,118.909c-0.292-0.275-0.7-0.412-1.225-0.412c-0.375,0-0.705,0.079-0.988,0.237
		s-0.519,0.366-0.706,0.625c-0.188,0.258-0.329,0.552-0.425,0.881s-0.145,0.665-0.145,1.007s0.049,0.677,0.145,1.006
		s0.237,0.623,0.425,0.881c0.188,0.259,0.423,0.467,0.706,0.625c0.283,0.159,0.613,0.238,0.988,0.238
		c0.241,0,0.471-0.046,0.688-0.138c0.216-0.092,0.408-0.219,0.574-0.382c0.167-0.162,0.305-0.355,0.412-0.581
		c0.109-0.225,0.176-0.471,0.201-0.737h0.787c-0.108,0.783-0.396,1.394-0.863,1.831s-1.066,0.656-1.799,0.656
		c-0.492,0-0.928-0.09-1.307-0.269s-0.698-0.423-0.957-0.731c-0.258-0.308-0.453-0.669-0.587-1.081s-0.2-0.852-0.2-1.318
		s0.066-0.906,0.2-1.319c0.134-0.412,0.329-0.772,0.587-1.081c0.259-0.309,0.578-0.554,0.957-0.737s0.814-0.275,1.307-0.275
		c0.691,0,1.276,0.184,1.756,0.55c0.479,0.367,0.764,0.921,0.855,1.663h-0.787C151.729,119.564,151.529,119.185,151.238,118.909z"/>
	<path fill="#19448D" d="M154.356,122.341c0.079,0.304,0.206,0.577,0.382,0.818c0.175,0.242,0.396,0.441,0.662,0.6
		c0.267,0.159,0.588,0.238,0.963,0.238c0.574,0,1.024-0.15,1.35-0.45s0.55-0.7,0.675-1.2h0.788c-0.167,0.733-0.474,1.3-0.919,1.7
		c-0.446,0.399-1.077,0.6-1.894,0.6c-0.509,0-0.948-0.09-1.319-0.269c-0.37-0.179-0.673-0.425-0.906-0.737s-0.406-0.675-0.519-1.088
		c-0.112-0.412-0.169-0.848-0.169-1.306c0-0.426,0.057-0.842,0.169-1.25s0.285-0.773,0.519-1.094
		c0.233-0.321,0.536-0.579,0.906-0.775c0.371-0.195,0.811-0.294,1.319-0.294c0.516,0,0.958,0.104,1.324,0.312
		c0.367,0.209,0.665,0.481,0.895,0.819c0.229,0.337,0.394,0.725,0.493,1.162c0.101,0.438,0.142,0.881,0.125,1.331h-4.962
		C154.238,121.742,154.277,122.036,154.356,122.341z M158.257,119.935c-0.097-0.275-0.231-0.52-0.406-0.731
		c-0.175-0.213-0.388-0.384-0.638-0.513s-0.533-0.193-0.85-0.193c-0.325,0-0.613,0.064-0.863,0.193s-0.462,0.3-0.637,0.513
		c-0.176,0.212-0.314,0.458-0.419,0.737s-0.173,0.564-0.206,0.856h4.175C158.404,120.497,158.352,120.209,158.257,119.935z"/>
</g>
<g>
	<path fill="#19448D" d="M31.273,26.501l0.006-0.016l0.366-0.915l0.007-0.018c0.005-0.012,0.009-0.024,0.013-0.036
		c0.153-0.444-0.083-0.928-0.527-1.081s-0.928,0.083-1.081,0.527l-0.331,0.963c-0.141,0.413,0.064,0.871,0.474,1.035
		C30.623,27.131,31.104,26.925,31.273,26.501z"/>
	<path fill="#19448D" d="M29.474,29.288c-0.392-0.089-0.782,0.156-0.872,0.548l-0.226,0.992c-0.082,0.363,0.133,0.732,0.496,0.833
		c0.374,0.105,0.762-0.113,0.867-0.487l0.005-0.016l0.266-0.948l0.005-0.018c0.003-0.011,0.006-0.021,0.008-0.032
		C30.112,29.768,29.866,29.378,29.474,29.288z"/>
	<path fill="#19448D" d="M28.913,34.992c0.001-0.009,0.002-0.018,0.003-0.027c0.034-0.333-0.209-0.63-0.541-0.664
		c-0.333-0.034-0.63,0.209-0.664,0.541l-0.103,1.01c-0.031,0.306,0.184,0.586,0.491,0.633c0.317,0.048,0.613-0.17,0.661-0.487
		l0.002-0.015l0.147-0.974L28.913,34.992z"/>
	<path fill="#19448D" d="M27.939,41.364c0.253,0.005,0.463-0.196,0.468-0.449l0-0.012l0.02-0.988l0-0.014c0-0.007,0-0.015,0-0.022
		c-0.008-0.267-0.23-0.477-0.497-0.469c-0.267,0.008-0.477,0.23-0.469,0.497l0.029,1.012C27.498,41.161,27.694,41.359,27.939,41.364
		z"/>
	<path fill="#19448D" d="M28.574,44.857l-0.001-0.009c-0.001-0.005-0.001-0.011-0.002-0.016c-0.03-0.197-0.214-0.332-0.411-0.303
		s-0.332,0.214-0.303,0.411l0.151,0.996c0.027,0.176,0.187,0.302,0.366,0.284c0.185-0.019,0.319-0.184,0.3-0.368l-0.001-0.008
		L28.574,44.857z"/>
	<path fill="#19448D" d="M29.284,49.753c-0.033-0.127-0.163-0.204-0.29-0.171c-0.127,0.033-0.204,0.163-0.171,0.29l0.251,0.972
		c0.03,0.109,0.142,0.18,0.254,0.155c0.115-0.026,0.188-0.14,0.162-0.255l-0.201-0.975C29.287,49.765,29.285,49.757,29.284,49.753z"
		/>
	<path fill="#19448D" d="M30.669,55.688c0.048-0.015,0.076-0.065,0.061-0.114l-0.276-0.96c0-0.002-0.002-0.005-0.002-0.007
		c-0.021-0.061-0.087-0.093-0.147-0.072c-0.061,0.021-0.093,0.087-0.072,0.147l0.324,0.948
		C30.573,55.676,30.622,55.702,30.669,55.688z"/>
	<path fill="#19448D" d="M43.433,63.131c-0.004-0.012-0.016-0.018-0.028-0.015s-0.018,0.016-0.015,0.027l0.293,0.957l-0.251-0.969
		C43.433,63.132,43.433,63.131,43.433,63.131z"/>
	<path fill="#19448D" d="M42.28,58.261c-0.019-0.07-0.091-0.112-0.162-0.093s-0.112,0.091-0.093,0.162l0.259,0.968
		c0.016,0.056,0.073,0.092,0.131,0.079c0.059-0.014,0.096-0.073,0.083-0.132l-0.216-0.976C42.281,58.266,42.281,58.263,42.28,58.261
		z"/>
	<path fill="#19448D" d="M41.331,53.349c-0.029-0.131-0.158-0.213-0.288-0.185c-0.131,0.029-0.213,0.158-0.185,0.288l0.215,0.979
		c0.026,0.114,0.139,0.191,0.255,0.169c0.12-0.022,0.199-0.137,0.177-0.256l-0.171-0.983C41.333,53.359,41.332,53.353,41.331,53.349
		z"/>
	<path fill="#19448D" d="M40.47,49.783c0.181-0.023,0.308-0.189,0.285-0.37l-0.116-0.99c-0.001-0.005-0.002-0.015-0.003-0.02
		c-0.031-0.192-0.212-0.322-0.404-0.291s-0.322,0.212-0.291,0.404l0.161,0.992C40.132,49.681,40.294,49.806,40.47,49.783z"/>
	<path fill="#19448D" d="M40.302,44.463l0-0.006l-0.05-0.993l0-0.008c0-0.006-0.001-0.012-0.001-0.018
		c-0.024-0.254-0.249-0.441-0.503-0.417c-0.254,0.024-0.441,0.249-0.417,0.503l0.094,1.002c0.022,0.233,0.224,0.41,0.46,0.398
		C40.128,44.912,40.315,44.705,40.302,44.463z"/>
	<path fill="#19448D" d="M39.641,40.037c0.304,0.009,0.557-0.23,0.566-0.534l0-0.01l0.029-0.99l0-0.012c0-0.008,0-0.015,0-0.023
		c-0.005-0.316-0.264-0.568-0.58-0.564c-0.316,0.005-0.568,0.264-0.564,0.58l0.015,1.01C39.112,39.788,39.346,40.029,39.641,40.037z
		"/>
	<path fill="#19448D" d="M40.024,32.804c-0.376-0.029-0.704,0.252-0.733,0.628l-0.078,1.009c-0.026,0.35,0.227,0.663,0.578,0.706
		c0.362,0.044,0.691-0.214,0.735-0.576l0.002-0.013l0.119-0.979l0.002-0.015c0.001-0.009,0.002-0.018,0.003-0.027
		C40.681,33.161,40.4,32.833,40.024,32.804z"/>
	<path fill="#19448D" d="M40.909,27.766c-0.431-0.078-0.843,0.208-0.921,0.638l-0.181,1c-0.072,0.403,0.184,0.797,0.587,0.888
		c0.415,0.094,0.827-0.166,0.921-0.58l0.004-0.016l0.218-0.959l0.004-0.019c0.002-0.01,0.004-0.021,0.006-0.031
		C41.625,28.256,41.339,27.844,40.909,27.766z"/>
	<path fill="#19448D" d="M42.341,22.855c-0.478-0.142-0.98,0.131-1.122,0.609l-0.29,0.978c-0.132,0.448,0.11,0.928,0.557,1.082
		c0.459,0.159,0.96-0.085,1.119-0.545l0.007-0.019l0.32-0.927l0.007-0.021c0.004-0.011,0.008-0.023,0.011-0.035
		C43.091,23.499,42.819,22.996,42.341,22.855z"/>
	<path fill="#19448D" d="M44.406,20.419l0.005-0.01l0.188-0.402l0.005-0.012c0.006-0.012,0.011-0.025,0.016-0.037
		c0.211-0.51-0.031-1.096-0.542-1.307s-1.096,0.031-1.307,0.542l-0.177,0.428c-0.2,0.486,0.014,1.051,0.496,1.276
		C43.585,21.129,44.174,20.915,44.406,20.419z"/>
	<path fill="#19448D" d="M59.17,20.866l0.461-0.864l0.012-0.022c0.01-0.018,0.019-0.037,0.028-0.056
		c0.292-0.626,0.022-1.37-0.604-1.663c-0.626-0.292-1.37-0.022-1.663,0.604l-0.433,0.927c-0.272,0.585-0.044,1.29,0.532,1.597
		c0.596,0.318,1.337,0.093,1.655-0.503L59.17,20.866z"/>
	<path fill="#19448D" d="M56.84,22.896c-0.581-0.209-1.221,0.092-1.43,0.673l-0.346,0.961c-0.194,0.541,0.067,1.148,0.603,1.374
		c0.555,0.234,1.194-0.027,1.428-0.582l0.009-0.02l0.38-0.903l0.009-0.022c0.007-0.017,0.014-0.034,0.02-0.052
		C57.722,23.746,57.421,23.105,56.84,22.896z"/>
	<path fill="#19448D" d="M55.462,29.942l0.006-0.019l0.291-0.937l0.007-0.021c0.005-0.016,0.009-0.031,0.013-0.047
		c0.133-0.527-0.186-1.063-0.713-1.196c-0.527-0.133-1.063,0.186-1.196,0.713l-0.25,0.989c-0.123,0.489,0.157,0.998,0.645,1.149
		C54.769,30.729,55.305,30.447,55.462,29.942z"/>
	<path fill="#19448D" d="M53.323,35.356c0.446,0.09,0.881-0.198,0.972-0.644l0.003-0.017l0.195-0.964l0.004-0.019
		c0.003-0.014,0.005-0.028,0.007-0.042c0.069-0.465-0.253-0.898-0.718-0.967c-0.465-0.069-0.898,0.253-0.967,0.718l-0.149,1.006
		C52.608,34.857,52.891,35.269,53.323,35.356z"/>
	<path fill="#19448D" d="M52.851,40.206c0.38,0.038,0.719-0.239,0.757-0.619l0.001-0.014l0.099-0.982l0.002-0.016
		c0.001-0.012,0.002-0.024,0.003-0.036c0.019-0.396-0.287-0.733-0.684-0.752s-0.733,0.287-0.752,0.684l-0.048,1.013
		C52.213,39.849,52.484,40.169,52.851,40.206z"/>
	<path fill="#19448D" d="M53.395,44.524l0-0.01l0.006-0.992l0-0.012c0-0.01,0-0.019-0.001-0.029
		c-0.015-0.323-0.289-0.573-0.612-0.557c-0.323,0.015-0.573,0.289-0.557,0.612l0.047,1.012c0.014,0.294,0.256,0.531,0.554,0.532
		C53.141,45.081,53.393,44.832,53.395,44.524z"/>
	<path fill="#19448D" d="M53.62,49.467L53.62,49.46l-0.078-0.987l-0.001-0.009c-0.001-0.008-0.001-0.015-0.002-0.023
		c-0.033-0.248-0.26-0.422-0.508-0.389c-0.248,0.033-0.422,0.26-0.389,0.508l0.132,0.995c0.03,0.222,0.229,0.386,0.455,0.368
		C53.464,49.906,53.639,49.701,53.62,49.467z"/>
	<path fill="#19448D" d="M54.236,54.392l-0.151-0.981c-0.001-0.005-0.003-0.016-0.004-0.021c-0.036-0.173-0.205-0.283-0.378-0.247
		c-0.173,0.036-0.283,0.205-0.247,0.378l0.205,0.979c0.034,0.15,0.181,0.255,0.335,0.229C54.155,54.703,54.263,54.552,54.236,54.392
		z"/>
	<path fill="#19448D" d="M54.74,58.171c-0.099,0.027-0.157,0.13-0.13,0.229l0.266,0.964c0.023,0.081,0.107,0.132,0.19,0.113
		c0.086-0.02,0.139-0.106,0.12-0.191l-0.213-0.973c-0.001-0.003-0.002-0.009-0.003-0.012C54.942,58.202,54.84,58.144,54.74,58.171z"
		/>
	<path fill="#19448D" d="M56.144,63.159c-0.009-0.028-0.039-0.043-0.067-0.034c-0.028,0.009-0.043,0.039-0.034,0.067l0.315,0.949
		c0.005,0.013,0.019,0.021,0.032,0.017c0.014-0.004,0.022-0.019,0.018-0.033l-0.264-0.964C56.145,63.162,56.144,63.16,56.144,63.159
		z"/>
	<path fill="#19448D" d="M69.081,60.415c-0.021,0.005-0.034,0.026-0.029,0.046l0.231,0.972l-0.155-0.987
		c0-0.001,0-0.003-0.001-0.004C69.123,60.423,69.102,60.41,69.081,60.415z"/>
	<path fill="#19448D" d="M68.578,55.49c0-0.006-0.001-0.015-0.002-0.021c-0.02-0.126-0.139-0.212-0.265-0.192
		s-0.212,0.139-0.192,0.265l0.158,0.986c0.017,0.098,0.108,0.171,0.209,0.161c0.106-0.01,0.184-0.104,0.173-0.21L68.578,55.49z"/>
	<path fill="#19448D" d="M68.384,51.513l0-0.005l-0.016-0.995l0-0.006c0-0.01-0.001-0.021-0.002-0.032
		c-0.022-0.233-0.228-0.404-0.462-0.383s-0.404,0.228-0.383,0.462l0.094,1.001c0.019,0.198,0.188,0.353,0.39,0.349
		C68.218,51.901,68.388,51.726,68.384,51.513z"/>
	<path fill="#19448D" d="M68.429,46.543l0-0.008l0.046-0.992l0-0.009c0.001-0.015,0.001-0.031,0-0.046
		c-0.01-0.34-0.295-0.608-0.635-0.598c-0.34,0.01-0.608,0.295-0.598,0.635l0.031,1.008c0.01,0.298,0.248,0.545,0.551,0.56
		C68.143,47.108,68.414,46.862,68.429,46.543z"/>
	<path fill="#19448D" d="M67.28,40.477l-0.033,1.01c-0.012,0.398,0.283,0.747,0.686,0.791c0.423,0.047,0.804-0.258,0.85-0.681
		l0.001-0.01l0.109-0.985l0.001-0.012c0.002-0.02,0.003-0.04,0.004-0.06c0.015-0.447-0.336-0.821-0.782-0.836
		C67.669,39.68,67.295,40.03,67.28,40.477z"/>
	<path fill="#19448D" d="M69.457,36.687l0.175-0.971l0.003-0.015c0.004-0.024,0.008-0.049,0.01-0.074
		c0.056-0.551-0.345-1.042-0.896-1.098s-1.042,0.345-1.098,0.896l-0.102,1.01c-0.049,0.495,0.29,0.955,0.788,1.045
		c0.523,0.094,1.024-0.254,1.118-0.777L69.457,36.687z"/>
	<path fill="#19448D" d="M69.782,29.423c-0.649-0.117-1.271,0.314-1.388,0.964l-0.181,1.004c-0.104,0.587,0.258,1.17,0.845,1.323
		c0.617,0.161,1.249-0.208,1.41-0.826l0.005-0.02l0.248-0.949l0.005-0.021c0.007-0.029,0.014-0.058,0.019-0.087
		C70.863,30.162,70.432,29.541,69.782,29.423z"/>
	<path fill="#19448D" d="M71.291,24.436c-0.738-0.207-1.504,0.224-1.71,0.962l-0.277,0.991c-0.186,0.671,0.171,1.387,0.836,1.63
		c0.699,0.255,1.473-0.105,1.728-0.804l0.011-0.029l0.333-0.913l0.01-0.028c0.012-0.032,0.022-0.065,0.032-0.099
		C72.46,25.408,72.029,24.642,71.291,24.436z"/>
	<path fill="#19448D" d="M86.694,40.36C86.694,40.361,86.694,40.361,86.694,40.36c-0.001,0.005,0.001,0.009,0.006,0.01
		c0.004,0.001,0.009-0.001,0.01-0.006l0.27-0.963L86.694,40.36z"/>
	<path fill="#19448D" d="M85.359,44.129l-0.382,0.923c0,0-0.001,0.002-0.001,0.002c-0.01,0.025,0.002,0.054,0.028,0.064
		c0.025,0.01,0.054-0.002,0.064-0.028l0.368-0.931c0.008-0.021-0.002-0.045-0.023-0.053C85.391,44.097,85.367,44.108,85.359,44.129z
		"/>
	<path fill="#19448D" d="M83.246,48.65l-0.484,0.872c0,0-0.002,0.003-0.002,0.003c-0.023,0.044-0.007,0.099,0.037,0.122
		c0.044,0.023,0.099,0.007,0.122-0.037l0.471-0.884c0.02-0.04,0.005-0.09-0.034-0.111C83.317,48.594,83.267,48.61,83.246,48.65z"/>
	<path fill="#19448D" d="M80.617,52.884l-0.589,0.804c0,0-0.003,0.004-0.003,0.005c-0.042,0.059-0.028,0.141,0.031,0.183
		s0.141,0.028,0.183-0.031l0.58-0.819c0.037-0.056,0.025-0.134-0.03-0.172C80.733,52.814,80.656,52.828,80.617,52.884z"/>
	<path fill="#19448D" d="M77.462,56.732l-0.694,0.713c0,0-0.005,0.005-0.005,0.006c-0.065,0.069-0.062,0.178,0.007,0.243
		c0.069,0.065,0.178,0.062,0.243-0.007l0.689-0.732c0.059-0.067,0.057-0.172-0.008-0.233C77.626,56.661,77.523,56.665,77.462,56.732
		z"/>
	<path fill="#19448D" d="M73.798,60.078l-0.005,0.004l-0.791,0.601l-0.006,0.005c-0.001,0-0.001,0.001-0.002,0.001
		c-0.093,0.073-0.109,0.207-0.036,0.299s0.207,0.109,0.299,0.036l0.791-0.621c0.088-0.069,0.104-0.196,0.037-0.285
		C74.016,60.027,73.888,60.01,73.798,60.078z"/>
	<path fill="#19448D" d="M69.67,62.826l-0.007,0.004l-0.874,0.469l-0.008,0.004c-0.001,0-0.002,0.001-0.002,0.001
		c-0.122,0.068-0.166,0.223-0.098,0.346c0.068,0.122,0.223,0.166,0.346,0.098l0.88-0.491c0.117-0.065,0.16-0.213,0.097-0.331
		C69.938,62.806,69.789,62.762,69.67,62.826z"/>
	<path fill="#19448D" d="M65.17,64.895l-0.008,0.003l-0.935,0.329l-0.01,0.003c-0.001,0-0.002,0.001-0.003,0.001
		c-0.153,0.057-0.231,0.226-0.174,0.379c0.057,0.153,0.226,0.231,0.379,0.174l0.946-0.35c0.146-0.054,0.223-0.216,0.171-0.364
		C65.483,64.921,65.319,64.842,65.17,64.895z"/>
	<path fill="#19448D" d="M60.411,66.257l-0.009,0.002l-0.973,0.189l-0.011,0.002c-0.001,0-0.002,0-0.004,0.001
		c-0.182,0.038-0.298,0.216-0.259,0.398s0.216,0.298,0.398,0.259l0.987-0.208c0.174-0.037,0.288-0.207,0.254-0.383
		C60.76,66.339,60.589,66.223,60.411,66.257z"/>
	<path fill="#19448D" d="M55.508,66.936l-0.009,0.001l-0.989,0.058l-0.011,0.001c-0.001,0-0.003,0-0.004,0
		c-0.208,0.016-0.363,0.197-0.347,0.404c0.016,0.208,0.197,0.363,0.404,0.347l1.006-0.076c0.2-0.015,0.352-0.188,0.34-0.389
		C55.885,67.079,55.711,66.924,55.508,66.936z"/>
	<path fill="#19448D" d="M50.556,66.993l-0.009-0.001l-0.989-0.057l-0.012-0.001c-0.002,0-0.003,0-0.005,0
		c-0.231-0.009-0.426,0.17-0.435,0.401c-0.009,0.231,0.17,0.426,0.401,0.435l1.009,0.042c0.223,0.009,0.413-0.162,0.426-0.386
		C50.955,67.2,50.782,67.006,50.556,66.993z"/>
	<path fill="#19448D" d="M45.64,66.472l-0.012-0.002l-0.972-0.177l-0.014-0.003c-0.002,0-0.003-0.001-0.005-0.001
		c-0.251-0.041-0.488,0.128-0.529,0.379c-0.041,0.251,0.128,0.488,0.379,0.529l0.998,0.165c0.243,0.04,0.474-0.122,0.518-0.365
		C46.049,66.753,45.886,66.517,45.64,66.472z"/>
	<path fill="#19448D" d="M40.844,65.331l-0.014-0.005l-0.937-0.308l-0.016-0.005c-0.002-0.001-0.004-0.001-0.006-0.002
		c-0.265-0.082-0.547,0.066-0.629,0.331s0.066,0.547,0.331,0.629l0.97,0.301c0.257,0.08,0.531-0.061,0.616-0.317
		C41.244,65.696,41.103,65.417,40.844,65.331z"/>
	<path fill="#19448D" d="M36.275,63.519l-0.016-0.008l-0.875-0.447l-0.018-0.009c-0.002-0.001-0.004-0.002-0.006-0.003
		c-0.27-0.132-0.596-0.02-0.729,0.25s-0.02,0.596,0.25,0.729l0.914,0.448c0.262,0.128,0.58,0.023,0.713-0.238
		C36.643,63.977,36.538,63.654,36.275,63.519z"/>
	<path fill="#19448D" d="M32.054,60.994l-0.783-0.588l-0.019-0.015c-0.002-0.001-0.004-0.003-0.005-0.004
		c-0.262-0.19-0.629-0.132-0.819,0.13c-0.19,0.262-0.132,0.629,0.13,0.819l0.827,0.6c0.255,0.185,0.612,0.132,0.802-0.121
		c0.192-0.255,0.14-0.618-0.115-0.809L32.054,60.994z"/>
	<path fill="#19448D" d="M28.38,57.779l-0.655-0.723l-0.019-0.021c-0.002-0.002-0.003-0.004-0.005-0.005
		c-0.238-0.253-0.635-0.266-0.889-0.029c-0.253,0.238-0.266,0.635-0.029,0.889l0.701,0.748c0.231,0.246,0.618,0.263,0.869,0.035
		c0.254-0.23,0.273-0.622,0.043-0.876L28.38,57.779z"/>
	<path fill="#19448D" d="M25.417,53.925l-0.493-0.838l-0.016-0.027c-0.001-0.002-0.003-0.004-0.004-0.007
		c-0.193-0.316-0.606-0.416-0.922-0.223c-0.316,0.193-0.416,0.606-0.223,0.922l0.536,0.877c0.188,0.307,0.589,0.409,0.901,0.226
		c0.315-0.185,0.421-0.591,0.235-0.906L25.417,53.925z"/>
	<path fill="#19448D" d="M23.325,49.555l-0.303-0.921l-0.011-0.032c-0.001-0.003-0.002-0.005-0.003-0.008
		c-0.129-0.372-0.535-0.569-0.907-0.439c-0.372,0.129-0.569,0.535-0.439,0.907l0.338,0.973c0.126,0.362,0.519,0.558,0.885,0.438
		c0.37-0.121,0.571-0.519,0.449-0.889L23.325,49.555z"/>
	<path fill="#19448D" d="M22.219,44.88l-0.003-0.032l-0.1-0.963l-0.004-0.035c0-0.003-0.001-0.006-0.001-0.009
		c-0.05-0.414-0.426-0.709-0.84-0.659c-0.414,0.05-0.709,0.426-0.659,0.84l0.124,1.024c0.049,0.403,0.413,0.695,0.818,0.652
		C21.964,45.657,22.262,45.29,22.219,44.88z"/>
	<path fill="#19448D" d="M21.246,40.752c0.433,0.045,0.82-0.27,0.865-0.703l0.003-0.033l0.099-0.961l0.004-0.037
		c0-0.003,0.001-0.006,0.001-0.009c0.038-0.439-0.287-0.825-0.726-0.862c-0.439-0.038-0.825,0.287-0.862,0.726l-0.089,1.029
		C20.505,40.328,20.817,40.708,21.246,40.752z"/>
	<path fill="#19448D" d="M21.953,35.848c0.436,0.142,0.905-0.095,1.047-0.531l0.011-0.034l0.299-0.916l0.012-0.038
		c0.001-0.003,0.002-0.006,0.003-0.009c0.137-0.443-0.112-0.912-0.555-1.049c-0.443-0.136-0.912,0.112-1.049,0.555l-0.305,0.99
		C21.285,35.245,21.522,35.707,21.953,35.848z"/>
	<path fill="#19448D" d="M24.873,30.89l0.019-0.032l0.487-0.831l0.021-0.036c0.002-0.003,0.003-0.006,0.005-0.009
		c0.239-0.424,0.089-0.961-0.335-1.2s-0.961-0.089-1.2,0.335l-0.509,0.903c-0.233,0.414-0.092,0.94,0.319,1.181
		C24.095,31.445,24.63,31.305,24.873,30.89z"/>
	<path fill="#19448D" d="M27.635,26.956l0.025-0.028l0.647-0.714l0.028-0.03c0.002-0.003,0.005-0.005,0.007-0.008
		c0.336-0.384,0.297-0.967-0.086-1.303c-0.384-0.336-0.967-0.297-1.303,0.086l-0.683,0.78c-0.328,0.374-0.296,0.945,0.074,1.28
		C26.718,27.359,27.296,27.33,27.635,26.956z"/>
	<path fill="#19448D" d="M30.788,21.491l-0.818,0.635c-0.411,0.319-0.492,0.911-0.179,1.329c0.317,0.423,0.916,0.509,1.339,0.192
		l0.029-0.021l0.772-0.579l0.032-0.024c0.003-0.002,0.006-0.005,0.009-0.007c0.421-0.327,0.498-0.933,0.171-1.354
		C31.816,21.24,31.209,21.164,30.788,21.491z"/>
	<path fill="#19448D" d="M35.178,18.773l-0.913,0.482c-0.48,0.254-0.671,0.848-0.424,1.335c0.249,0.492,0.85,0.688,1.342,0.439
		l0.03-0.015l0.862-0.437l0.034-0.017c0.003-0.002,0.007-0.004,0.01-0.005c0.492-0.26,0.68-0.87,0.42-1.361
		C36.279,18.701,35.67,18.513,35.178,18.773z"/>
	<path fill="#19448D" d="M39.626,19.116l0.03-0.01l0.922-0.299l0.034-0.011c0.004-0.001,0.008-0.003,0.012-0.004
		c0.548-0.188,0.84-0.785,0.652-1.333s-0.785-0.84-1.333-0.652l-0.975,0.334c-0.536,0.184-0.828,0.765-0.652,1.306
		C38.492,18.994,39.079,19.293,39.626,19.116z"/>
	<path fill="#19448D" d="M44.93,15.555l-1.01,0.196c-0.578,0.113-0.963,0.669-0.86,1.251c0.104,0.589,0.666,0.982,1.255,0.878
		l0.029-0.005l0.957-0.169l0.033-0.006c0.004-0.001,0.008-0.002,0.012-0.002c0.592-0.115,0.979-0.688,0.864-1.279
		C46.095,15.827,45.522,15.441,44.93,15.555z"/>
	<path fill="#19448D" d="M50.029,14.96l-1.024,0.07c-0.611,0.042-1.078,0.566-1.047,1.18c0.032,0.62,0.561,1.098,1.181,1.066
		l0.027-0.001l0.972-0.05l0.032-0.002c0.004,0,0.009,0,0.013-0.001c0.625-0.043,1.096-0.583,1.054-1.208
		C51.194,15.389,50.653,14.917,50.029,14.96z"/>
	<path fill="#19448D" d="M53.986,17.251l0.034,0.003l0.964,0.073l0.039,0.003c0.004,0,0.008,0.001,0.011,0.001
		c0.647,0.039,1.203-0.453,1.242-1.1c0.039-0.647-0.453-1.203-1.1-1.242l-1.032-0.063c-0.634-0.038-1.184,0.44-1.232,1.075
		C52.864,16.643,53.344,17.202,53.986,17.251z"/>
	<path fill="#19448D" d="M60.289,15.747l-1.013-0.21c-0.642-0.133-1.275,0.273-1.418,0.915c-0.145,0.648,0.263,1.291,0.911,1.436
		l0.034,0.008l0.942,0.21l0.04,0.009c0.004,0.001,0.008,0.002,0.011,0.002c0.654,0.136,1.295-0.284,1.431-0.939
		C61.364,16.523,60.944,15.883,60.289,15.747z"/>
	<path fill="#19448D" d="M65.244,17.228l-0.973-0.352c-0.636-0.23-1.341,0.092-1.581,0.727c-0.243,0.64,0.08,1.356,0.72,1.599
		l0.033,0.013l0.902,0.342l0.039,0.015c0.004,0.001,0.008,0.003,0.011,0.004c0.648,0.234,1.363-0.101,1.598-0.749
		C66.227,18.177,65.892,17.462,65.244,17.228z"/>
	<path fill="#19448D" d="M67.816,21.154l0.032,0.017l0.845,0.464l0.037,0.02c0.004,0.002,0.007,0.004,0.011,0.006
		c0.627,0.332,1.405,0.093,1.737-0.534c0.332-0.627,0.093-1.405-0.534-1.737l-0.915-0.484c-0.615-0.325-1.381-0.098-1.717,0.514
		C66.972,20.038,67.198,20.814,67.816,21.154z"/>
	<path fill="#19448D" d="M73.46,21.576c-0.581-0.419-1.394-0.295-1.823,0.282c-0.433,0.583-0.312,1.406,0.27,1.839l0.029,0.022
		l0.773,0.575l0.034,0.025c0.003,0.003,0.007,0.005,0.01,0.007c0.592,0.427,1.419,0.293,1.846-0.299
		c0.427-0.592,0.293-1.419-0.299-1.846L73.46,21.576z"/>
	<path fill="#19448D" d="M78.241,25.543l-0.751-0.715c-0.534-0.508-1.379-0.495-1.897,0.032c-0.523,0.533-0.515,1.389,0.018,1.911
		l0.027,0.026l0.688,0.674l0.031,0.031c0.003,0.003,0.006,0.006,0.009,0.009c0.544,0.518,1.404,0.497,1.922-0.047
		C78.806,26.922,78.785,26.061,78.241,25.543z"/>
	<path fill="#19448D" d="M81.47,31.376c0.603-0.481,0.702-1.36,0.221-1.963l-0.647-0.812c-0.472-0.592-1.335-0.697-1.936-0.232
		c-0.607,0.469-0.718,1.342-0.249,1.948l0.024,0.031l0.589,0.761l0.028,0.036c0.003,0.004,0.006,0.007,0.008,0.011
		C79.988,31.759,80.867,31.858,81.47,31.376z"/>
	<path fill="#19448D" d="M84.08,35.691c0.681-0.404,0.906-1.284,0.502-1.965l-0.53-0.894c-0.397-0.668-1.259-0.898-1.936-0.51
		c-0.683,0.392-0.92,1.263-0.528,1.947l0.02,0.035l0.477,0.833l0.023,0.041c0.002,0.004,0.005,0.008,0.007,0.012
		C82.519,35.87,83.399,36.095,84.08,35.691z"/>
	<path fill="#19448D" d="M86.85,38.407l-0.401-0.962c-0.307-0.736-1.15-1.093-1.893-0.797c-0.751,0.3-1.116,1.151-0.817,1.902
		l0.016,0.039l0.355,0.89l0.018,0.045c0.002,0.004,0.004,0.009,0.005,0.013c0.312,0.75,1.174,1.105,1.924,0.793
		S87.162,39.157,86.85,38.407z"/>
</g>
<g>
	<path fill="#19448D" d="M141.452,55.076l-0.006,0.016l-0.366,0.915l-0.007,0.018c-0.005,0.012-0.009,0.024-0.013,0.036
		c-0.153,0.444,0.083,0.928,0.527,1.081s0.928-0.083,1.081-0.527l0.331-0.963c0.141-0.413-0.064-0.871-0.474-1.035
		C142.101,54.447,141.621,54.652,141.452,55.076z"/>
	<path fill="#19448D" d="M143.25,52.289c0.392,0.089,0.782-0.156,0.872-0.548l0.226-0.992c0.082-0.363-0.133-0.732-0.496-0.833
		c-0.374-0.105-0.762,0.113-0.867,0.487l-0.005,0.016l-0.266,0.948l-0.005,0.018c-0.003,0.011-0.006,0.021-0.008,0.032
		C142.613,51.809,142.858,52.199,143.25,52.289z"/>
	<path fill="#19448D" d="M143.811,46.585c-0.001,0.009-0.002,0.018-0.003,0.027c-0.034,0.333,0.209,0.63,0.541,0.664
		c0.333,0.034,0.63-0.209,0.664-0.541l0.103-1.01c0.031-0.306-0.184-0.586-0.491-0.633c-0.317-0.048-0.613,0.17-0.661,0.487
		l-0.002,0.015l-0.147,0.974L143.811,46.585z"/>
	<path fill="#19448D" d="M144.785,40.213c-0.253-0.005-0.463,0.196-0.468,0.449l0,0.012l-0.02,0.988l0,0.014
		c0,0.007,0,0.015,0,0.022c0.008,0.267,0.23,0.477,0.497,0.469c0.267-0.008,0.477-0.23,0.469-0.497l-0.029-1.012
		C145.227,40.416,145.03,40.218,144.785,40.213z"/>
	<path fill="#19448D" d="M144.151,36.72l0.001,0.009c0.001,0.005,0.001,0.011,0.002,0.016c0.03,0.197,0.214,0.332,0.411,0.303
		s0.332-0.214,0.303-0.411l-0.151-0.996c-0.027-0.176-0.187-0.302-0.366-0.284c-0.185,0.019-0.319,0.184-0.3,0.368l0.001,0.008
		L144.151,36.72z"/>
	<path fill="#19448D" d="M143.44,31.824c0.033,0.127,0.163,0.204,0.29,0.171c0.127-0.033,0.204-0.163,0.171-0.29l-0.251-0.972
		c-0.03-0.109-0.142-0.18-0.254-0.155c-0.115,0.026-0.188,0.14-0.162,0.255l0.201,0.975C143.438,31.812,143.44,31.82,143.44,31.824z
		"/>
	<path fill="#19448D" d="M142.055,25.889c-0.048,0.015-0.076,0.065-0.061,0.114l0.276,0.96c0,0.002,0.002,0.005,0.002,0.007
		c0.021,0.061,0.087,0.093,0.147,0.072c0.061-0.021,0.093-0.087,0.072-0.147l-0.324-0.948
		C142.152,25.901,142.102,25.875,142.055,25.889z"/>
	<path fill="#19448D" d="M129.291,18.446c0.004,0.012,0.016,0.018,0.028,0.015s0.018-0.016,0.015-0.027l-0.293-0.957l0.251,0.969
		C129.291,18.445,129.291,18.446,129.291,18.446z"/>
	<path fill="#19448D" d="M130.444,23.316c0.019,0.07,0.091,0.112,0.162,0.093s0.112-0.091,0.093-0.162l-0.259-0.968
		c-0.016-0.056-0.073-0.092-0.131-0.079c-0.059,0.014-0.096,0.073-0.083,0.132l0.216,0.976
		C130.443,23.311,130.444,23.314,130.444,23.316z"/>
	<path fill="#19448D" d="M131.394,28.228c0.029,0.131,0.158,0.213,0.288,0.185c0.131-0.029,0.213-0.158,0.185-0.288l-0.215-0.979
		c-0.026-0.114-0.139-0.191-0.255-0.169c-0.12,0.022-0.199,0.137-0.177,0.256l0.171,0.983
		C131.392,28.218,131.393,28.225,131.394,28.228z"/>
	<path fill="#19448D" d="M132.255,31.794c-0.181,0.023-0.308,0.189-0.285,0.37l0.116,0.99c0.001,0.005,0.002,0.015,0.003,0.02
		c0.031,0.192,0.212,0.322,0.404,0.291s0.322-0.212,0.291-0.404l-0.161-0.992C132.593,31.896,132.431,31.771,132.255,31.794z"/>
	<path fill="#19448D" d="M132.422,37.114l0,0.006l0.05,0.993l0,0.008c0,0.006,0.001,0.012,0.001,0.018
		c0.024,0.254,0.249,0.441,0.503,0.417c0.254-0.024,0.441-0.249,0.417-0.503l-0.094-1.002c-0.022-0.233-0.224-0.41-0.46-0.398
		C132.597,36.665,132.41,36.872,132.422,37.114z"/>
	<path fill="#19448D" d="M133.084,41.54c-0.304-0.009-0.557,0.23-0.566,0.534l0,0.01l-0.029,0.99l0,0.012c0,0.008,0,0.015,0,0.023
		c0.005,0.316,0.264,0.568,0.58,0.564c0.316-0.005,0.568-0.264,0.564-0.58l-0.015-1.01C133.613,41.789,133.379,41.548,133.084,41.54
		z"/>
	<path fill="#19448D" d="M132.7,48.773c0.376,0.029,0.704-0.252,0.733-0.628l0.078-1.009c0.026-0.35-0.227-0.663-0.578-0.706
		c-0.362-0.044-0.691,0.214-0.735,0.576l-0.002,0.013l-0.119,0.979l-0.002,0.015c-0.001,0.009-0.002,0.018-0.003,0.027
		C132.043,48.416,132.324,48.744,132.7,48.773z"/>
	<path fill="#19448D" d="M131.816,53.811c0.431,0.078,0.843-0.208,0.921-0.638l0.181-1c0.072-0.403-0.184-0.797-0.587-0.888
		c-0.415-0.094-0.827,0.166-0.921,0.58l-0.004,0.016l-0.218,0.959l-0.004,0.019c-0.002,0.01-0.004,0.021-0.006,0.031
		C131.099,53.321,131.385,53.733,131.816,53.811z"/>
	<path fill="#19448D" d="M130.384,58.722c0.478,0.142,0.98-0.131,1.122-0.609l0.29-0.978c0.132-0.448-0.11-0.928-0.557-1.082
		c-0.459-0.159-0.96,0.085-1.119,0.545l-0.007,0.019l-0.32,0.927l-0.007,0.021c-0.004,0.011-0.008,0.023-0.011,0.035
		C129.633,58.078,129.906,58.581,130.384,58.722z"/>
	<path fill="#19448D" d="M128.319,61.158l-0.005,0.01l-0.188,0.402l-0.005,0.012c-0.006,0.012-0.011,0.025-0.016,0.037
		c-0.211,0.51,0.031,1.096,0.542,1.307s1.096-0.031,1.307-0.542l0.177-0.428c0.2-0.486-0.014-1.051-0.496-1.276
		C129.139,60.448,128.55,60.662,128.319,61.158z"/>
	<path fill="#19448D" d="M113.554,60.711l-0.461,0.864l-0.012,0.022c-0.01,0.018-0.019,0.037-0.028,0.056
		c-0.292,0.626-0.022,1.37,0.604,1.663c0.626,0.292,1.37,0.022,1.663-0.604l0.433-0.927c0.272-0.585,0.044-1.29-0.532-1.597
		c-0.596-0.318-1.337-0.093-1.655,0.503L113.554,60.711z"/>
	<path fill="#19448D" d="M115.885,58.681c0.581,0.209,1.221-0.092,1.43-0.673l0.346-0.961c0.194-0.541-0.067-1.148-0.603-1.374
		c-0.555-0.234-1.194,0.027-1.428,0.582l-0.009,0.02l-0.38,0.903l-0.009,0.022c-0.007,0.017-0.014,0.034-0.02,0.052
		C115.003,57.831,115.304,58.472,115.885,58.681z"/>
	<path fill="#19448D" d="M117.263,51.635l-0.006,0.019l-0.291,0.937l-0.007,0.021c-0.005,0.016-0.009,0.031-0.013,0.047
		c-0.133,0.527,0.186,1.063,0.713,1.196c0.527,0.133,1.063-0.186,1.196-0.713l0.25-0.989c0.123-0.489-0.157-0.998-0.645-1.149
		C117.956,50.848,117.42,51.13,117.263,51.635z"/>
	<path fill="#19448D" d="M119.402,46.221c-0.446-0.09-0.881,0.198-0.972,0.644l-0.003,0.017l-0.195,0.964l-0.004,0.019
		c-0.003,0.014-0.005,0.028-0.007,0.042c-0.069,0.465,0.253,0.898,0.718,0.967c0.465,0.069,0.898-0.253,0.967-0.718l0.149-1.006
		C120.117,46.72,119.833,46.308,119.402,46.221z"/>
	<path fill="#19448D" d="M119.873,41.371c-0.38-0.038-0.719,0.239-0.757,0.619l-0.001,0.014l-0.099,0.982l-0.002,0.016
		c-0.001,0.012-0.002,0.024-0.003,0.036c-0.019,0.396,0.287,0.733,0.684,0.752s0.733-0.287,0.752-0.684l0.048-1.013
		C120.511,41.728,120.24,41.408,119.873,41.371z"/>
	<path fill="#19448D" d="M119.33,37.053l0,0.01l-0.006,0.992l0,0.012c0,0.01,0,0.019,0.001,0.029
		c0.015,0.323,0.289,0.573,0.612,0.557c0.323-0.015,0.573-0.289,0.557-0.612l-0.047-1.012c-0.014-0.294-0.256-0.531-0.554-0.532
		C119.583,36.496,119.332,36.745,119.33,37.053z"/>
	<path fill="#19448D" d="M119.104,32.11l0.001,0.007l0.078,0.987l0.001,0.009c0.001,0.008,0.001,0.015,0.002,0.023
		c0.033,0.248,0.26,0.422,0.508,0.389c0.248-0.033,0.422-0.26,0.389-0.508l-0.132-0.995c-0.03-0.222-0.229-0.386-0.455-0.368
		C119.261,31.671,119.086,31.876,119.104,32.11z"/>
	<path fill="#19448D" d="M118.489,27.185l0.151,0.981c0.001,0.005,0.003,0.016,0.004,0.021c0.036,0.173,0.205,0.283,0.378,0.247
		c0.173-0.036,0.283-0.205,0.247-0.378l-0.205-0.979c-0.034-0.15-0.181-0.255-0.335-0.229
		C118.569,26.874,118.462,27.025,118.489,27.185z"/>
	<path fill="#19448D" d="M117.984,23.406c0.099-0.027,0.157-0.13,0.13-0.229l-0.266-0.964c-0.023-0.081-0.107-0.132-0.19-0.113
		c-0.086,0.02-0.139,0.106-0.12,0.191l0.213,0.973c0.001,0.003,0.002,0.009,0.003,0.012
		C117.782,23.375,117.885,23.433,117.984,23.406z"/>
	<path fill="#19448D" d="M116.581,18.418c0.009,0.028,0.039,0.043,0.067,0.034c0.028-0.009,0.043-0.039,0.034-0.067l-0.315-0.949
		c-0.005-0.013-0.019-0.021-0.032-0.017c-0.014,0.004-0.022,0.019-0.018,0.033l0.264,0.964
		C116.58,18.415,116.58,18.417,116.581,18.418z"/>
	<path fill="#19448D" d="M103.643,21.162c0.021-0.005,0.034-0.026,0.029-0.046l-0.231-0.972l0.155,0.987
		c0,0.001,0,0.003,0.001,0.004C103.602,21.154,103.623,21.167,103.643,21.162z"/>
	<path fill="#19448D" d="M104.147,26.087c0,0.006,0.001,0.015,0.002,0.021c0.02,0.126,0.139,0.212,0.265,0.192
		s0.212-0.139,0.192-0.265l-0.158-0.986c-0.017-0.098-0.108-0.171-0.209-0.161c-0.106,0.01-0.184,0.104-0.173,0.21L104.147,26.087z"
		/>
	<path fill="#19448D" d="M104.34,30.064l0,0.005l0.016,0.995l0,0.006c0,0.01,0.001,0.021,0.002,0.032
		c0.022,0.233,0.228,0.404,0.462,0.383s0.404-0.228,0.383-0.462l-0.094-1.001c-0.019-0.198-0.188-0.353-0.39-0.349
		C104.506,29.676,104.337,29.851,104.34,30.064z"/>
	<path fill="#19448D" d="M104.296,35.034l0,0.008l-0.046,0.992l0,0.009c-0.001,0.015-0.001,0.031,0,0.046
		c0.01,0.34,0.295,0.608,0.635,0.598c0.34-0.01,0.608-0.295,0.598-0.635l-0.031-1.008c-0.01-0.298-0.248-0.545-0.551-0.56
		C104.581,34.469,104.311,34.715,104.296,35.034z"/>
	<path fill="#19448D" d="M105.445,41.1l0.033-1.01c0.012-0.398-0.283-0.747-0.686-0.791c-0.423-0.047-0.804,0.258-0.85,0.681
		l-0.001,0.01l-0.109,0.985l-0.001,0.012c-0.002,0.02-0.003,0.04-0.004,0.06c-0.015,0.447,0.336,0.821,0.782,0.836
		C105.056,41.897,105.43,41.547,105.445,41.1z"/>
	<path fill="#19448D" d="M103.268,44.89l-0.175,0.971l-0.003,0.015c-0.004,0.024-0.008,0.049-0.01,0.074
		c-0.056,0.551,0.345,1.042,0.896,1.098s1.042-0.345,1.098-0.896l0.102-1.01c0.049-0.495-0.29-0.955-0.788-1.045
		c-0.523-0.094-1.024,0.254-1.118,0.777L103.268,44.89z"/>
	<path fill="#19448D" d="M102.942,52.154c0.649,0.117,1.271-0.314,1.388-0.964l0.181-1.004c0.104-0.587-0.258-1.17-0.845-1.323
		c-0.617-0.161-1.249,0.208-1.41,0.826l-0.005,0.02l-0.248,0.949l-0.005,0.021c-0.007,0.029-0.014,0.058-0.019,0.087
		C101.861,51.415,102.293,52.036,102.942,52.154z"/>
	<path fill="#19448D" d="M101.433,57.141c0.738,0.207,1.504-0.224,1.71-0.962l0.277-0.991c0.186-0.671-0.171-1.387-0.836-1.63
		c-0.699-0.255-1.473,0.105-1.728,0.804l-0.011,0.029l-0.333,0.913l-0.01,0.028c-0.012,0.032-0.022,0.065-0.032,0.099
		C100.264,56.169,100.695,56.935,101.433,57.141z"/>
	<path fill="#19448D" d="M86.031,41.217C86.031,41.217,86.031,41.216,86.031,41.217c0.001-0.005-0.001-0.009-0.006-0.01
		c-0.004-0.001-0.009,0.001-0.01,0.006l-0.27,0.963L86.031,41.217z"/>
	<path fill="#19448D" d="M87.365,37.448l0.382-0.923c0,0,0.001-0.002,0.001-0.002c0.01-0.025-0.002-0.054-0.028-0.064
		c-0.025-0.01-0.054,0.002-0.064,0.028l-0.368,0.931c-0.008,0.021,0.002,0.045,0.023,0.053
		C87.334,37.48,87.357,37.469,87.365,37.448z"/>
	<path fill="#19448D" d="M89.478,32.927l0.484-0.872c0,0,0.002-0.003,0.002-0.003c0.023-0.044,0.007-0.099-0.037-0.122
		c-0.044-0.023-0.099-0.007-0.122,0.037l-0.471,0.884c-0.02,0.04-0.005,0.09,0.034,0.111C89.408,32.983,89.457,32.967,89.478,32.927
		z"/>
	<path fill="#19448D" d="M92.107,28.693l0.589-0.804c0,0,0.003-0.004,0.003-0.005c0.042-0.059,0.028-0.141-0.031-0.183
		s-0.141-0.028-0.183,0.031l-0.58,0.819c-0.037,0.056-0.025,0.134,0.03,0.172C91.992,28.763,92.068,28.749,92.107,28.693z"/>
	<path fill="#19448D" d="M95.263,24.845l0.694-0.713c0,0,0.005-0.005,0.005-0.006c0.065-0.069,0.062-0.178-0.007-0.243
		c-0.069-0.065-0.178-0.062-0.243,0.007l-0.689,0.732c-0.059,0.067-0.057,0.172,0.008,0.233
		C95.098,24.917,95.202,24.912,95.263,24.845z"/>
	<path fill="#19448D" d="M98.927,21.499l0.005-0.004l0.791-0.601l0.006-0.005c0.001,0,0.001-0.001,0.002-0.001
		c0.093-0.073,0.109-0.207,0.036-0.299s-0.207-0.109-0.299-0.036l-0.791,0.621c-0.088,0.069-0.104,0.196-0.037,0.285
		C98.708,21.55,98.837,21.567,98.927,21.499z"/>
	<path fill="#19448D" d="M103.055,18.751l0.007-0.004l0.874-0.469l0.008-0.004c0.001,0,0.002-0.001,0.002-0.001
		c0.122-0.068,0.166-0.223,0.098-0.346c-0.068-0.122-0.223-0.166-0.346-0.098l-0.88,0.491c-0.117,0.065-0.16,0.213-0.097,0.331
		C102.786,18.771,102.935,18.815,103.055,18.751z"/>
	<path fill="#19448D" d="M107.555,16.682l0.008-0.003l0.935-0.329l0.01-0.003c0.001,0,0.002-0.001,0.003-0.001
		c0.153-0.057,0.231-0.226,0.174-0.379c-0.057-0.153-0.226-0.231-0.379-0.174l-0.946,0.35c-0.146,0.054-0.223,0.216-0.171,0.364
		C107.242,16.656,107.406,16.735,107.555,16.682z"/>
	<path fill="#19448D" d="M112.314,15.32l0.009-0.002l0.973-0.189l0.011-0.002c0.001,0,0.002,0,0.004-0.001
		c0.182-0.038,0.298-0.216,0.259-0.398s-0.216-0.298-0.398-0.259l-0.987,0.208c-0.174,0.037-0.288,0.207-0.254,0.383
		C111.964,15.238,112.136,15.354,112.314,15.32z"/>
	<path fill="#19448D" d="M117.217,14.641l0.009-0.001l0.989-0.058l0.011-0.001c0.001,0,0.003,0,0.004,0
		c0.208-0.016,0.363-0.197,0.347-0.404c-0.016-0.208-0.197-0.363-0.404-0.347l-1.006,0.076c-0.2,0.015-0.352,0.188-0.34,0.389
		C116.839,14.498,117.014,14.653,117.217,14.641z"/>
	<path fill="#19448D" d="M122.168,14.584l0.009,0.001l0.989,0.057l0.012,0.001c0.002,0,0.003,0,0.005,0
		c0.231,0.009,0.426-0.17,0.435-0.401c0.009-0.231-0.17-0.426-0.401-0.435l-1.009-0.042c-0.223-0.009-0.413,0.162-0.426,0.386
		C121.77,14.377,121.942,14.571,122.168,14.584z"/>
	<path fill="#19448D" d="M127.084,15.105l0.012,0.002l0.972,0.177l0.014,0.003c0.002,0,0.003,0.001,0.005,0.001
		c0.251,0.041,0.488-0.128,0.529-0.379c0.041-0.251-0.128-0.488-0.379-0.529l-0.998-0.165c-0.243-0.04-0.474,0.122-0.518,0.365
		C126.676,14.825,126.839,15.06,127.084,15.105z"/>
	<path fill="#19448D" d="M131.881,16.246l0.014,0.005l0.937,0.308l0.016,0.005c0.002,0.001,0.004,0.001,0.006,0.002
		c0.265,0.082,0.547-0.066,0.629-0.331c0.082-0.265-0.066-0.547-0.331-0.629l-0.97-0.301c-0.257-0.08-0.531,0.061-0.616,0.317
		C131.481,15.881,131.622,16.16,131.881,16.246z"/>
	<path fill="#19448D" d="M136.45,18.058l0.016,0.008l0.875,0.447l0.018,0.009c0.002,0.001,0.004,0.002,0.006,0.003
		c0.27,0.132,0.596,0.02,0.729-0.25s0.02-0.596-0.25-0.729l-0.914-0.448c-0.262-0.128-0.58-0.023-0.713,0.238
		C136.082,17.6,136.186,17.923,136.45,18.058z"/>
	<path fill="#19448D" d="M140.67,20.583l0.783,0.588l0.019,0.015c0.002,0.001,0.004,0.003,0.005,0.004
		c0.262,0.19,0.629,0.132,0.819-0.13c0.19-0.262,0.132-0.629-0.13-0.819l-0.827-0.6c-0.255-0.185-0.612-0.132-0.802,0.121
		c-0.192,0.255-0.14,0.618,0.115,0.809L140.67,20.583z"/>
	<path fill="#19448D" d="M144.344,23.798l0.655,0.723l0.019,0.021c0.002,0.002,0.003,0.004,0.005,0.005
		c0.238,0.253,0.635,0.266,0.889,0.029c0.253-0.238,0.266-0.635,0.029-0.889l-0.701-0.748c-0.231-0.246-0.618-0.263-0.869-0.035
		c-0.254,0.23-0.273,0.622-0.043,0.876L144.344,23.798z"/>
	<path fill="#19448D" d="M147.308,27.652l0.493,0.838l0.016,0.027c0.001,0.002,0.003,0.004,0.004,0.007
		c0.193,0.316,0.606,0.416,0.922,0.223c0.316-0.193,0.416-0.606,0.223-0.922l-0.536-0.877c-0.188-0.307-0.589-0.409-0.901-0.226
		c-0.315,0.185-0.421,0.591-0.235,0.906L147.308,27.652z"/>
	<path fill="#19448D" d="M149.399,32.022l0.303,0.921l0.011,0.032c0.001,0.003,0.002,0.005,0.003,0.008
		c0.129,0.372,0.535,0.569,0.907,0.439c0.372-0.129,0.569-0.535,0.439-0.907l-0.338-0.973c-0.126-0.362-0.519-0.558-0.885-0.438
		c-0.37,0.121-0.571,0.519-0.449,0.889L149.399,32.022z"/>
	<path fill="#19448D" d="M150.506,36.697l0.003,0.032l0.1,0.963l0.004,0.035c0,0.003,0.001,0.006,0.001,0.009
		c0.05,0.414,0.426,0.709,0.84,0.659c0.414-0.05,0.709-0.426,0.659-0.84l-0.124-1.024c-0.049-0.403-0.413-0.695-0.818-0.652
		C150.761,35.921,150.463,36.287,150.506,36.697z"/>
	<path fill="#19448D" d="M151.479,40.825c-0.433-0.045-0.82,0.27-0.865,0.703l-0.003,0.033l-0.099,0.961l-0.004,0.037
		c0,0.003-0.001,0.006-0.001,0.009c-0.038,0.439,0.287,0.825,0.726,0.862c0.439,0.038,0.825-0.287,0.862-0.726l0.089-1.029
		C152.22,41.249,151.907,40.869,151.479,40.825z"/>
	<path fill="#19448D" d="M150.771,45.73c-0.436-0.142-0.905,0.095-1.047,0.531l-0.011,0.034l-0.299,0.916l-0.012,0.038
		c-0.001,0.003-0.002,0.006-0.003,0.009c-0.137,0.443,0.112,0.912,0.555,1.049c0.443,0.136,0.912-0.112,1.049-0.555l0.305-0.99
		C151.44,46.332,151.202,45.87,150.771,45.73z"/>
	<path fill="#19448D" d="M147.851,50.687l-0.019,0.032l-0.487,0.831l-0.021,0.036c-0.002,0.003-0.003,0.006-0.005,0.009
		c-0.239,0.424-0.089,0.961,0.335,1.2s0.961,0.089,1.2-0.335l0.509-0.903c0.233-0.414,0.092-0.94-0.319-1.181
		C148.629,50.132,148.095,50.272,147.851,50.687z"/>
	<path fill="#19448D" d="M145.09,54.621l-0.025,0.028l-0.647,0.714l-0.028,0.03c-0.002,0.003-0.005,0.005-0.007,0.008
		c-0.336,0.384-0.297,0.967,0.086,1.303c0.384,0.336,0.967,0.297,1.303-0.086l0.683-0.78c0.328-0.374,0.296-0.945-0.074-1.28
		C146.007,54.218,145.429,54.247,145.09,54.621z"/>
	<path fill="#19448D" d="M141.936,60.086l0.818-0.635c0.411-0.319,0.492-0.911,0.179-1.329c-0.317-0.423-0.916-0.509-1.339-0.192
		l-0.029,0.021l-0.772,0.579l-0.032,0.024c-0.003,0.002-0.006,0.005-0.009,0.007c-0.421,0.327-0.498,0.933-0.171,1.354
		C140.909,60.337,141.515,60.413,141.936,60.086z"/>
	<path fill="#19448D" d="M137.546,62.804l0.913-0.482c0.48-0.254,0.671-0.848,0.424-1.335c-0.249-0.492-0.85-0.688-1.342-0.439
		l-0.03,0.015L136.649,61l-0.034,0.017c-0.003,0.002-0.007,0.004-0.01,0.005c-0.492,0.26-0.68,0.87-0.42,1.361
		C136.445,62.876,137.055,63.064,137.546,62.804z"/>
	<path fill="#19448D" d="M133.098,62.461l-0.03,0.01l-0.922,0.299l-0.034,0.011c-0.004,0.001-0.008,0.003-0.012,0.004
		c-0.548,0.188-0.84,0.785-0.652,1.333s0.785,0.84,1.333,0.652l0.975-0.334c0.536-0.184,0.828-0.765,0.652-1.306
		C134.232,62.583,133.645,62.284,133.098,62.461z"/>
	<path fill="#19448D" d="M127.794,66.022l1.01-0.196c0.578-0.113,0.963-0.669,0.86-1.251c-0.104-0.589-0.666-0.982-1.255-0.878
		l-0.029,0.005l-0.957,0.169l-0.033,0.006c-0.004,0.001-0.008,0.002-0.012,0.002c-0.592,0.115-0.979,0.688-0.864,1.279
		C126.63,65.75,127.202,66.137,127.794,66.022z"/>
	<path fill="#19448D" d="M122.696,66.618l1.024-0.07c0.611-0.042,1.078-0.566,1.047-1.18c-0.032-0.62-0.561-1.098-1.181-1.066
		l-0.027,0.001l-0.972,0.05l-0.032,0.002c-0.004,0-0.009,0-0.013,0.001c-0.625,0.043-1.096,0.583-1.054,1.208
		C121.53,66.188,122.071,66.66,122.696,66.618z"/>
	<path fill="#19448D" d="M118.739,64.326l-0.034-0.003l-0.964-0.073l-0.039-0.003c-0.004,0-0.008-0.001-0.011-0.001
		c-0.647-0.039-1.203,0.453-1.242,1.1c-0.039,0.647,0.453,1.203,1.1,1.242l1.032,0.063c0.634,0.038,1.184-0.44,1.232-1.075
		C119.861,64.934,119.38,64.375,118.739,64.326z"/>
	<path fill="#19448D" d="M112.435,65.83l1.013,0.21c0.642,0.133,1.275-0.273,1.418-0.915c0.145-0.648-0.263-1.291-0.911-1.436
		l-0.034-0.008l-0.942-0.21l-0.04-0.009c-0.004-0.001-0.008-0.002-0.011-0.002c-0.654-0.136-1.295,0.284-1.431,0.939
		C111.361,65.054,111.781,65.694,112.435,65.83z"/>
	<path fill="#19448D" d="M107.481,64.349l0.973,0.352c0.636,0.23,1.341-0.092,1.581-0.727c0.243-0.64-0.08-1.356-0.72-1.599
		l-0.033-0.013l-0.902-0.342l-0.039-0.015c-0.004-0.001-0.008-0.003-0.011-0.004c-0.648-0.234-1.363,0.101-1.598,0.749
		C106.498,63.4,106.833,64.115,107.481,64.349z"/>
	<path fill="#19448D" d="M104.908,60.423l-0.032-0.017l-0.845-0.464l-0.037-0.02c-0.004-0.002-0.007-0.004-0.011-0.006
		c-0.627-0.332-1.405-0.093-1.737,0.534c-0.332,0.627-0.093,1.405,0.534,1.737l0.915,0.484c0.615,0.325,1.381,0.098,1.717-0.514
		C105.753,61.539,105.527,60.763,104.908,60.423z"/>
	<path fill="#19448D" d="M99.264,60.001c0.581,0.419,1.394,0.295,1.823-0.282c0.433-0.583,0.312-1.406-0.27-1.839l-0.029-0.022
		l-0.773-0.575l-0.034-0.025c-0.003-0.003-0.007-0.005-0.01-0.007c-0.592-0.427-1.419-0.293-1.846,0.299
		c-0.427,0.592-0.293,1.419,0.299,1.846L99.264,60.001z"/>
	<path fill="#19448D" d="M94.484,56.034l0.751,0.715c0.534,0.508,1.379,0.495,1.897-0.032c0.523-0.533,0.515-1.389-0.018-1.911
		l-0.027-0.026l-0.688-0.674l-0.031-0.031c-0.003-0.003-0.006-0.006-0.009-0.009c-0.544-0.518-1.404-0.497-1.922,0.047
		C93.919,54.656,93.94,55.516,94.484,56.034z"/>
	<path fill="#19448D" d="M91.255,50.201c-0.603,0.481-0.702,1.36-0.221,1.963l0.647,0.812c0.472,0.592,1.335,0.697,1.936,0.232
		c0.607-0.469,0.718-1.342,0.249-1.948l-0.024-0.031l-0.589-0.761l-0.028-0.036c-0.003-0.004-0.006-0.007-0.008-0.011
		C92.736,49.818,91.858,49.72,91.255,50.201z"/>
	<path fill="#19448D" d="M88.644,45.886c-0.681,0.404-0.906,1.284-0.502,1.965l0.53,0.894c0.397,0.668,1.259,0.898,1.936,0.51
		c0.683-0.392,0.92-1.263,0.528-1.947l-0.02-0.035l-0.477-0.833L90.616,46.4c-0.002-0.004-0.005-0.008-0.007-0.012
		C90.205,45.707,89.326,45.482,88.644,45.886z"/>
	<path fill="#19448D" d="M85.875,43.17l0.401,0.962c0.307,0.736,1.15,1.093,1.893,0.797c0.751-0.3,1.116-1.151,0.817-1.902
		l-0.016-0.039l-0.355-0.89l-0.018-0.045c-0.002-0.004-0.004-0.009-0.005-0.013c-0.312-0.75-1.174-1.105-1.924-0.793
		S85.563,42.42,85.875,43.17z"/>
</g>
</svg>
