<?xml version="1.0" encoding="UTF-8"?>
<svg width="39px" height="24px" viewBox="0 0 39 24" version="1.1" xmlns="http://www.w3.org/2000/svg" xmlns:xlink="http://www.w3.org/1999/xlink">
    <!-- Generator: Sketch 52.3 (67297) - http://www.bohemiancoding.com/sketch -->
    <title>monday logowednesy-01 copy 16</title>
    <desc>Created with Sketch.</desc>
    <g id="Page-1" stroke="none" stroke-width="1" fill="none" fill-rule="evenodd">
        <g id="monday.Brandbook" transform="translate(-101.000000, -7182.000000)" fill-rule="nonzero">
            <g id="monday-logowednesy-01-copy-16" transform="translate(101.000000, 7182.000000)">
                <g id="monday-logowednesy-01-copy-15">
                    <path d="M4.82034612,23.4421549 C3.13562106,23.4405946 1.58443942,22.5318604 0.769062898,21.0687774 C-0.0463136263,19.6056944 0.00255435744,17.8187296 0.896693369,16.40169 L9.23940958,3.18361048 C10.0963147,1.74433866 11.6726536,0.879817552 13.3565326,0.925631763 C15.0404115,0.971445975 16.5666536,1.92038069 17.3428113,3.40408414 C18.118969,4.88778759 18.0228133,6.67260649 17.0916692,8.06572056 L8.75390709,21.2838001 C7.90586274,22.628679 6.4189797,23.4445354 4.82034612,23.4421549 Z" id="Shape" fill="#FB275D"></path>
                    <path d="M19.1946876,23.4421549 C17.5099626,23.4405946 15.9587809,22.5318604 15.1434044,21.0687774 C14.3280279,19.6056944 14.3768959,17.8187296 15.2710349,16.40169 L23.611274,3.18361048 C24.4561194,1.71987016 26.0405737,0.832544971 27.7398787,0.871511628 C29.4391837,0.910478286 30.9806502,1.86948377 31.7564703,3.37038747 C32.5322904,4.87129116 32.4179674,6.67324151 31.4585795,8.06572056 L23.1183404,21.2838001 C22.2721642,22.6257131 20.7897983,23.441145 19.1946876,23.4421549 Z" id="Shape" fill="#FFCC00"></path>
                    <ellipse id="Oval" fill="#00CA72" cx="33.5665521" cy="18.9484503" rx="4.63952122" ry="4.49370454"></ellipse>
                </g>
            </g>
        </g>
    </g>
</svg>