<svg width="52" height="43" viewBox="0 0 52 43" fill="none" xmlns="http://www.w3.org/2000/svg">
    <path transform="rotate(.314 -4021.497 4591.953) skewX(-.022)" stroke="#7E64A9" stroke-width="1.344" d="M0-.672h3.963"/>
    <path transform="rotate(.314 -4003.628 3854.747) skewX(-.018)" stroke="#D9C2FF" stroke-width="1.344" d="M0-.672h3.963"/>
    <path transform="rotate(.324 -3301.659 3611.174) skewX(-.018)" stroke="#7E64A9" stroke-width="1.344" d="M0-.672h5.283"/>
    <path transform="rotate(.314 -3324.036 4594.005) skewX(-.022)" stroke="#D9C2FF" stroke-width="1.344" d="M0-.672h5.283"/>
    <path transform="rotate(.324 -2608.134 3613.013) skewX(-.018)" stroke="#D9C2FF" stroke-width="1.344" d="M0-.672h5.283"/>
    <path d="m25.198 13.852 5.076.028" stroke="#7E64A9" stroke-width="1.344"/>
    <path transform="rotate(.324 -1915.638 3854.418) skewX(-.018)" stroke="#7E64A9" stroke-width="1.344" d="M0-.672h3.963"/>
    <path transform="rotate(.314 -1929.494 4598.532) skewX(-.022)" stroke="#D9C2FF" stroke-width="1.344" d="M0-.672h3.963"/>
    <path d="M28.572 1.54c-2.923 1.313-4.338 2.441-6.054 5.001-1.716 2.56-2.615 5.521-2.593 8.538.022 3.016.965 5.965 2.718 8.505a16.37 16.37 0 0 0 3.379 3.578" stroke="#451C89" stroke-width="1.344"/>
    <path d="M20.33 1.571c2.92 1.317 5.379 3.377 7.09 5.94 1.712 2.564 2.606 5.526 2.578 8.542-.027 3.017-.974 5.965-2.732 8.502-.694 1.002-1.378 1.9-2.113 2.658" stroke="#451C89" stroke-width="1.344"/>
    <path transform="matrix(-.45787 .88905 -.90124 -.43326 29.533 28.755)" stroke="#7E64A9" stroke-width="1.344" d="M0-.672h3.855"/>
    <path transform="matrix(-.45784 .88906 -.90124 -.43327 31.298 25.327)" stroke="#D9C2FF" stroke-width="1.344" d="M0-.672h3.855"/>
    <path transform="matrix(-.45784 .88906 -.90123 -.43328 35.434 25.89)" stroke="#7E64A9" stroke-width="1.344" d="M0-.672h5.14"/>
    <path transform="matrix(-.45787 .88905 -.90124 -.43326 33.08 30.46)" stroke="#D9C2FF" stroke-width="1.344" d="M0-.672h5.14"/>
    <path transform="matrix(-.45785 .88906 -.90123 -.43328 38.982 27.596)" stroke="#D9C2FF" stroke-width="1.344" d="M0-.672h5.14"/>
    <path d="m37.22 32.45-2.261 4.39" stroke="#7E64A9" stroke-width="1.344"/>
    <path transform="matrix(-.45785 .88906 -.90123 -.43327 41.94 30.443)" stroke="#7E64A9" stroke-width="1.344" d="M0-.672h3.855"/>
    <path transform="matrix(-.45786 .88905 -.90124 -.43326 40.176 33.871)" stroke="#D9C2FF" stroke-width="1.344" d="M0-.672h3.855"/>
    <path d="M47.186 40.8c.064-3.11-.365-4.832-1.992-7.446a15.9 15.9 0 0 0-6.798-6.01 16.593 16.593 0 0 0-9.101-1.398 17.153 17.153 0 0 0-4.81 1.345" stroke="#451C89" stroke-width="1.344"/>
    <path d="M50.776 33.652a17.223 17.223 0 0 1-8.637 3.519 16.563 16.563 0 0 1-9.073-1.535 15.897 15.897 0 0 1-6.704-6.115c-.627-1.044-1.162-2.031-1.544-3.002" stroke="#451C89" stroke-width="1.344"/>
    <path transform="matrix(-.41618 -.90926 .9196 -.3929 21.656 28.771)" stroke="#7E64A9" stroke-width="1.344" d="M0-.672h3.851"/>
    <path transform="matrix(-.41621 -.90924 .91961 -.3929 23.26 32.272)" stroke="#D9C2FF" stroke-width="1.344" d="M0-.672h3.851"/>
    <path transform="matrix(-.4162 -.90924 .91961 -.39288 20.17 34.988)" stroke="#7E64A9" stroke-width="1.344" d="M0-.672h5.134"/>
    <path transform="matrix(-.41618 -.90926 .9196 -.3929 18.032 30.32)" stroke="#D9C2FF" stroke-width="1.344" d="M0-.672h5.134"/>
    <path transform="matrix(-.4162 -.90925 .91961 -.39288 16.545 36.536)" stroke="#D9C2FF" stroke-width="1.344" d="M0-.672h5.134"/>
    <path d="m13.804 32.126-2.052-4.485" stroke="#7E64A9" stroke-width="1.344"/>
    <path transform="matrix(-.4162 -.90924 .91961 -.39288 12.388 36.917)" stroke="#7E64A9" stroke-width="1.344" d="M0-.672h3.851"/>
    <path transform="matrix(-.41618 -.90926 .9196 -.3929 10.784 33.416)" stroke="#D9C2FF" stroke-width="1.344" d="M0-.672h3.851"/>
    <path d="M.797 34.213c2.433 2.032 4.076 2.812 7.196 3.27 3.12.459 6.283.035 9.123-1.222a15.958 15.958 0 0 0 6.926-5.88 15.907 15.907 0 0 0 2.002-4.438" stroke="#451C89" stroke-width="1.344"/>
    <path d="M4.19 41.448a15.98 15.98 0 0 1 2.717-8.675 15.962 15.962 0 0 1 7.017-5.772 16.61 16.61 0 0 1 9.146-1.085c1.231.2 2.358.432 3.375.768" stroke="#451C89" stroke-width="1.344"/>
</svg>
